<svg xmlns="http://www.w3.org/2000/svg" xmlns:xlink="http://www.w3.org/1999/xlink" viewBox="0 0 213.86 38.74"><defs><style>.cls-1{isolation:isolate;}.cls-2{fill:#fff;}.cls-3,.cls-4,.cls-5{mix-blend-mode:multiply;}.cls-3{fill:url(#New_Gradient_Swatch_6);}.cls-4{fill:url(#New_Gradient_Swatch_6-2);}.cls-5{fill:url(#New_Gradient_Swatch_6-3);}</style><linearGradient id="New_Gradient_Swatch_6" x1="265.05" y1="432.89" x2="294.47" y2="432.89" gradientTransform="translate(-154.54 -413.52)" gradientUnits="userSpaceOnUse"><stop offset="0" stop-color="#652d90"/><stop offset="1" stop-color="#eb008b"/></linearGradient><linearGradient id="New_Gradient_Swatch_6-2" x1="137.6" y1="38.74" x2="137.6" y2="0" gradientTransform="matrix(1, 0, 0, 1, 0, 0)" xlink:href="#New_Gradient_Swatch_6"/><linearGradient id="New_Gradient_Swatch_6-3" x1="107.61" y1="29.06" x2="139.93" y2="29.06" gradientTransform="matrix(1, 0, 0, 1, 0, 0)" xlink:href="#New_Gradient_Swatch_6"/></defs><g class="cls-1"><g id="Layer_2" data-name="Layer 2"><g id="Layer_1-2" data-name="Layer 1"><path class="cls-2" d="M25.45,12.36A1.33,1.33,0,0,0,25,11.28a1.68,1.68,0,0,0-1.11-.38,2.36,2.36,0,0,0-1.44.49,2.33,2.33,0,0,0-.89,1.43l-2.08,9.7a1.53,1.53,0,0,1-.56.93,1.59,1.59,0,0,1-1,.38,1,1,0,0,1-.76-.31,1.07,1.07,0,0,1-.31-.76,1.94,1.94,0,0,1,0-.24l1.4-6.47a6.56,6.56,0,0,0,.1-1.07,4,4,0,0,0-1.16-2.91,4.06,4.06,0,0,0-3-1.17,6.09,6.09,0,0,0-3.95,1.53A6.31,6.31,0,0,0,8,16.05l-1.4,6.47a1.53,1.53,0,0,1-.56.93,1.59,1.59,0,0,1-1,.38,1,1,0,0,1-.76-.31,1,1,0,0,1-.31-.76v-.25L6,12.82a1.94,1.94,0,0,0,.06-.46,1.33,1.33,0,0,0-.45-1.08A1.64,1.64,0,0,0,4.5,10.9a2.36,2.36,0,0,0-1.43.49,2.28,2.28,0,0,0-.89,1.43L.12,22.52a4.59,4.59,0,0,0-.12,1,4,4,0,0,0,1.18,2.94,4.07,4.07,0,0,0,3,1.18,6.09,6.09,0,0,0,4-1.51,6.32,6.32,0,0,0,2.28-3.64l1.39-6.46a1.6,1.6,0,0,1,.58-.91,1.57,1.57,0,0,1,1-.41,1.09,1.09,0,0,1,.78.29,1,1,0,0,1,.29.74,1.27,1.27,0,0,1,0,.28L13,22.52a6.09,6.09,0,0,0-.1,1,4,4,0,0,0,1.19,2.94,4.05,4.05,0,0,0,3,1.18,6.08,6.08,0,0,0,4-1.51,6.32,6.32,0,0,0,2.28-3.64l2.08-9.7A3.73,3.73,0,0,0,25.45,12.36Z"/><path class="cls-2" d="M33.5,20.37H31.21a1.51,1.51,0,0,0-1.19.51A1.68,1.68,0,0,0,29.56,22c0,.69.36,1,1.09,1h2.29A4.19,4.19,0,0,0,35.69,22a4.43,4.43,0,0,0,1.59-2.54,4,4,0,0,0,.08-.75,2.74,2.74,0,0,0-.82-2,2.85,2.85,0,0,0-2.11-.82H29.91a4.27,4.27,0,0,0-2.76,1.07,4.47,4.47,0,0,0-1.61,2.54l-1,4.52a3.65,3.65,0,0,0-.07.72,2.8,2.8,0,0,0,.82,2.06,2.83,2.83,0,0,0,2.09.83h6.79A1.54,1.54,0,0,0,35.42,27a1.6,1.6,0,0,0,.44-1.12c0-.69-.36-1-1.09-1H28a.67.67,0,0,1-.52-.22.69.69,0,0,1-.22-.53,1,1,0,0,1,0-.17l1-4.52a1.13,1.13,0,0,1,.42-.64,1.08,1.08,0,0,1,.7-.28h4.52a.74.74,0,0,1,.53.2.69.69,0,0,1,.2.52,1.09,1.09,0,0,1-.33.77A1.08,1.08,0,0,1,33.5,20.37Z"/><path class="cls-2" d="M49.48,20.93a2.7,2.7,0,0,0-.81-2,2.89,2.89,0,0,0-2.12-.8H44.29a1.56,1.56,0,0,0-1.2.52,1.69,1.69,0,0,0-.46,1.14c0,.69.37,1,1.09,1H46q.75,0,.75.69a.91.91,0,0,1,0,.23L46.22,24a1.09,1.09,0,0,1-.41.65,1.06,1.06,0,0,1-.7.27H39.67l1.64-7.7a2.11,2.11,0,0,0,0-.33A1,1,0,0,0,41,16.1a1.21,1.21,0,0,0-.79-.26,1.69,1.69,0,0,0-1.62,1.35l-1.92,9a1.15,1.15,0,0,0,0,.26,1.06,1.06,0,0,0,.31.78,1.1,1.1,0,0,0,.78.31h6.78a4.29,4.29,0,0,0,2.77-1.06A4.39,4.39,0,0,0,48.91,24l.48-2.26A3.46,3.46,0,0,0,49.48,20.93Z"/><path class="cls-2" d="M65.37,12.36a1.33,1.33,0,0,0-.45-1.08,1.73,1.73,0,0,0-1.12-.38,2.33,2.33,0,0,0-1.42.49,2.4,2.4,0,0,0-.91,1.43l-2.06,9.7a1.62,1.62,0,0,1-.6.91,1.54,1.54,0,0,1-1,.4H51.36a2.2,2.2,0,0,0-1.71.74A2.37,2.37,0,0,0,49,26.19c0,1,.52,1.48,1.56,1.48H57a6.09,6.09,0,0,0,4-1.53,6.33,6.33,0,0,0,2.29-3.62l2.06-9.7A1.88,1.88,0,0,0,65.37,12.36Z"/><path class="cls-2" d="M81.77,10.9H72.08a6.09,6.09,0,0,0-4,1.53,6.31,6.31,0,0,0-2.29,3.62l-1.38,6.47a6.09,6.09,0,0,0-.1,1,4,4,0,0,0,1.17,2.94,4.06,4.06,0,0,0,3,1.18h9.7A2.23,2.23,0,0,0,80,26.9a2.33,2.33,0,0,0,.63-1.6q0-1.47-1.56-1.47H69.33a1,1,0,0,1-.75-.31,1.06,1.06,0,0,1-.3-.76,1.94,1.94,0,0,1,0-.24l1.38-6.47a1.53,1.53,0,0,1,.59-.9,1.6,1.6,0,0,1,1-.41H81A2.21,2.21,0,0,0,82.7,14a2.32,2.32,0,0,0,.63-1.59C83.33,11.4,82.81,10.9,81.77,10.9Z"/><path class="cls-2" d="M80.4,17.37H73.93a2.17,2.17,0,0,0-1.7.73,2.41,2.41,0,0,0-.66,1.63q0,1.47,1.56,1.47h6.46a2.24,2.24,0,0,0,1.74-.76,2.39,2.39,0,0,0,.62-1.6C82,17.86,81.43,17.37,80.4,17.37Z"/><path class="cls-2" d="M99.74,10.9H86.82a2.32,2.32,0,0,0-1.66.7,2.24,2.24,0,0,0-.7,1.65,1.53,1.53,0,0,0,.39,1.07,1.51,1.51,0,0,0,1.16.42h4.55l-2.35,11a1.88,1.88,0,0,0-.06.46,1.29,1.29,0,0,0,.49,1.09,1.57,1.57,0,0,0,1.09.37,2.35,2.35,0,0,0,1.44-.51,2.3,2.3,0,0,0,.88-1.41l2.35-11h4.54a2.18,2.18,0,0,0,1.73-.77,2.32,2.32,0,0,0,.63-1.59C101.3,11.4,100.78,10.9,99.74,10.9Z"/><path class="cls-3" d="M118.42,5.67l-7.91,13.7L121.7,38.74l11.18-19.37L139.16,8.5A5.67,5.67,0,0,0,134.25,0h-6A11.34,11.34,0,0,0,118.42,5.67Z"/><path class="cls-4" d="M137.52,0h-6a5.67,5.67,0,0,0-4.91,8.5l6.27,10.87L121.7,38.74h15.82a11.33,11.33,0,0,0,9.82-5.67L152,25a11.32,11.32,0,0,0,0-11.34l-4.64-8A11.33,11.33,0,0,0,137.52,0Z"/><path class="cls-5" d="M132.88,19.37H110.51l-1.36,2.36a11.34,11.34,0,0,0,9.82,17h15.28a5.67,5.67,0,0,0,4.91-8.5Z"/><path class="cls-2" d="M172.76,27.67a5.16,5.16,0,0,1-5.15-5.15V16.05a1.24,1.24,0,0,0-.41-.9,1.29,1.29,0,0,0-2.22.9v9.7a1.77,1.77,0,0,1-.61,1.43,2,2,0,0,1-2.62,0,1.77,1.77,0,0,1-.61-1.43v-9.7a5.15,5.15,0,0,1,10.3,0v6.47a1.29,1.29,0,0,0,2.23.91,1.3,1.3,0,0,0,.4-.91v-9.7a1.78,1.78,0,0,1,.61-1.43A1.85,1.85,0,0,1,176,10.9a1.88,1.88,0,0,1,1.31.49,1.81,1.81,0,0,1,.61,1.43v9.7a5.23,5.23,0,0,1-5.15,5.15Z"/><path class="cls-2" d="M184.27,27.67a5.21,5.21,0,0,1-5.15-5.15V16.05a5.21,5.21,0,0,1,5.15-5.15H194a1.82,1.82,0,0,1,1.44.61,2,2,0,0,1,0,2.63,1.81,1.81,0,0,1-1.44.6h-9.69a1.26,1.26,0,0,0-.91.41,1.23,1.23,0,0,0-.4.9v6.47a1.26,1.26,0,0,0,.4.91,1.25,1.25,0,0,0,.91.4H194a1.79,1.79,0,0,1,1.44.61,2,2,0,0,1,0,2.62,1.79,1.79,0,0,1-1.44.61Zm3.23-6.47a1.79,1.79,0,0,1-1.43-.6,2,2,0,0,1,0-2.63,1.79,1.79,0,0,1,1.43-.6H194a1.81,1.81,0,0,1,1.44.6,2,2,0,0,1,0,2.63,1.81,1.81,0,0,1-1.44.6Z"/><path class="cls-2" d="M207.39,14.74v11a1.79,1.79,0,0,1-.6,1.43,2,2,0,0,1-2.63,0,1.79,1.79,0,0,1-.6-1.43v-11H199a1.81,1.81,0,0,1-1.43-.6,2,2,0,0,1,0-2.66A1.8,1.8,0,0,1,199,10.9h12.93a1.8,1.8,0,0,1,1.43.61,2,2,0,0,1,0,2.63,1.79,1.79,0,0,1-1.43.6Z"/></g></g></g></svg>