<svg xmlns="http://www.w3.org/2000/svg" xmlns:xlink="http://www.w3.org/1999/xlink" viewBox="0 0 220.34 38.74"><defs><style>.cls-1{isolation:isolate;}.cls-2{fill:#fff;}.cls-3,.cls-4,.cls-5{mix-blend-mode:multiply;}.cls-3{fill:url(#New_Gradient_Swatch_10);}.cls-4{fill:url(#New_Gradient_Swatch_10-2);}.cls-5{fill:url(#New_Gradient_Swatch_10-3);}</style><linearGradient id="New_Gradient_Swatch_10" x1="110.98" y1="23" x2="130.35" y2="23" gradientUnits="userSpaceOnUse"><stop offset="0" stop-color="#00ff6f"/><stop offset="1" stop-color="#066060"/></linearGradient><linearGradient id="New_Gradient_Swatch_10-2" x1="130.35" y1="23" x2="149.73" y2="23" xlink:href="#New_Gradient_Swatch_10"/><linearGradient id="New_Gradient_Swatch_10-3" x1="791.55" y1="564.35" x2="830.29" y2="564.35" gradientTransform="translate(694.7 -791.55) rotate(90)" xlink:href="#New_Gradient_Swatch_10"/></defs><g class="cls-1"><g id="Layer_2" data-name="Layer 2"><g id="Layer_1-2" data-name="Layer 1"><path class="cls-2" d="M25.45,12.44A1.33,1.33,0,0,0,25,11.36,1.67,1.67,0,0,0,23.89,11a2.35,2.35,0,0,0-1.44.48,2.32,2.32,0,0,0-.89,1.44L19.48,22.6a1.65,1.65,0,0,1-1.57,1.31,1,1,0,0,1-.76-.31,1.07,1.07,0,0,1-.31-.76,1.94,1.94,0,0,1,0-.24l1.4-6.46a6.56,6.56,0,0,0,.1-1.07,4,4,0,0,0-1.16-2.92,4.09,4.09,0,0,0-3-1.16,6.13,6.13,0,0,0-3.95,1.52A6.34,6.34,0,0,0,8,16.14L6.56,22.6a1.5,1.5,0,0,1-.56.93,1.54,1.54,0,0,1-1,.38,1.06,1.06,0,0,1-1.07-1.07V22.6L6,12.9a1.88,1.88,0,0,0,.06-.46,1.33,1.33,0,0,0-.45-1.08A1.64,1.64,0,0,0,4.5,11a2.35,2.35,0,0,0-1.43.48,2.28,2.28,0,0,0-.89,1.44L.12,22.6a4.66,4.66,0,0,0-.12,1,4,4,0,0,0,1.18,2.94,4,4,0,0,0,3,1.18,6.13,6.13,0,0,0,4-1.5,6.34,6.34,0,0,0,2.28-3.65l1.39-6.46a1.6,1.6,0,0,1,.58-.91,1.56,1.56,0,0,1,1-.4,1,1,0,0,1,.78.29,1,1,0,0,1,.29.74,1.41,1.41,0,0,1,0,.28L13,22.6a6.09,6.09,0,0,0-.1,1,4,4,0,0,0,4.17,4.12,6.13,6.13,0,0,0,4-1.5,6.34,6.34,0,0,0,2.28-3.65l2.08-9.69A3.89,3.89,0,0,0,25.45,12.44Z"/><path class="cls-2" d="M33.5,20.45H31.21A1.49,1.49,0,0,0,30,21a1.64,1.64,0,0,0-.46,1.13c0,.69.36,1,1.09,1h2.29a4.24,4.24,0,0,0,2.75-1.06,4.48,4.48,0,0,0,1.59-2.55,3.82,3.82,0,0,0,.08-.75,2.74,2.74,0,0,0-.82-2,2.88,2.88,0,0,0-2.11-.81H29.91A4.26,4.26,0,0,0,27.15,17a4.51,4.51,0,0,0-1.61,2.54l-1,4.53a3.51,3.51,0,0,0-.07.72,2.77,2.77,0,0,0,.82,2,2.83,2.83,0,0,0,2.09.83h6.79a1.54,1.54,0,0,0,1.21-.54A1.6,1.6,0,0,0,35.86,26c0-.69-.36-1-1.09-1H28a.7.7,0,0,1-.52-.21.73.73,0,0,1-.22-.53.88.88,0,0,1,0-.17l1-4.53a1.3,1.3,0,0,1,1.12-.92h4.52a.71.71,0,0,1,.53.21.67.67,0,0,1,.2.51,1.08,1.08,0,0,1-.33.77A1,1,0,0,1,33.5,20.45Z"/><path class="cls-2" d="M49.48,21a2.73,2.73,0,0,0-.81-2,2.88,2.88,0,0,0-2.12-.79H44.29a1.53,1.53,0,0,0-1.2.52,1.69,1.69,0,0,0-.46,1.13c0,.69.37,1,1.09,1H46c.5,0,.75.24.75.7a.83.83,0,0,1,0,.22l-.48,2.27a1.12,1.12,0,0,1-.41.65,1.05,1.05,0,0,1-.7.26H39.67l1.64-7.7a1.87,1.87,0,0,0,0-.32.93.93,0,0,0-.32-.76,1.16,1.16,0,0,0-.79-.26,1.58,1.58,0,0,0-1,.34,1.63,1.63,0,0,0-.64,1L36.7,26.32a1.07,1.07,0,0,0,0,.25,1.06,1.06,0,0,0,1.09,1.09h6.78a4.28,4.28,0,0,0,2.77-1.05,4.42,4.42,0,0,0,1.6-2.55l.48-2.27A3.44,3.44,0,0,0,49.48,21Z"/><path class="cls-2" d="M65.37,12.44a1.33,1.33,0,0,0-.45-1.08A1.72,1.72,0,0,0,63.8,11a2.32,2.32,0,0,0-1.42.48,2.39,2.39,0,0,0-.91,1.44L59.41,22.6a1.59,1.59,0,0,1-.6.91,1.54,1.54,0,0,1-1,.4H51.36a2.2,2.2,0,0,0-1.71.74A2.38,2.38,0,0,0,49,26.28q0,1.47,1.56,1.47H57a6.13,6.13,0,0,0,4-1.52,6.39,6.39,0,0,0,2.29-3.63l2.06-9.69A2,2,0,0,0,65.37,12.44Z"/><path class="cls-2" d="M81.77,11H72.08a6.13,6.13,0,0,0-4,1.52,6.34,6.34,0,0,0-2.29,3.63L64.46,22.6a6.19,6.19,0,0,0-.1,1,4,4,0,0,0,4.16,4.12h9.7A2.19,2.19,0,0,0,80,27a2.32,2.32,0,0,0,.63-1.59c0-1-.52-1.48-1.56-1.48H69.33a1,1,0,0,1-.75-.31,1.06,1.06,0,0,1-.3-.76,1.94,1.94,0,0,1,0-.24l1.38-6.46a1.53,1.53,0,0,1,.59-.91,1.58,1.58,0,0,1,1-.4H81a2.25,2.25,0,0,0,1.74-.77,2.33,2.33,0,0,0,.63-1.6Q83.33,11,81.77,11Z"/><path class="cls-2" d="M80.4,17.45H73.93a2.18,2.18,0,0,0-1.7.74,2.37,2.37,0,0,0-.66,1.62c0,1,.52,1.48,1.56,1.48h6.46a2.25,2.25,0,0,0,1.74-.77A2.36,2.36,0,0,0,82,18.93C82,17.94,81.43,17.45,80.4,17.45Z"/><path class="cls-2" d="M99.74,11H86.82a2.28,2.28,0,0,0-1.66.7,2.22,2.22,0,0,0-.7,1.64,1.52,1.52,0,0,0,.39,1.07,1.48,1.48,0,0,0,1.16.43h4.55l-2.35,11a2,2,0,0,0-.06.47,1.3,1.3,0,0,0,.49,1.09,1.61,1.61,0,0,0,1.09.36,2.4,2.4,0,0,0,1.44-.5,2.32,2.32,0,0,0,.88-1.42l2.35-11h4.54a2.21,2.21,0,0,0,1.73-.77,2.33,2.33,0,0,0,.63-1.6Q101.3,11,99.74,11Z"/><path class="cls-3" d="M111,10.09V25.92a2.82,2.82,0,0,0,1.42,2.45l17.95,10.37V16.37L115.24,7.64A2.84,2.84,0,0,0,111,10.09Z"/><path class="cls-4" d="M130.35,16.37V38.74l18-10.37a2.84,2.84,0,0,0,1.42-2.45V10.09a2.84,2.84,0,0,0-4.26-2.45Z"/><polygon class="cls-5" points="141.54 19.37 130.35 0 119.17 19.37 130.35 38.74 141.54 19.37"/><path class="cls-2" d="M172.76,27.75h-9.7a1.84,1.84,0,0,1-1.34-.57,1.87,1.87,0,0,1-.58-1.35V12.91a1.89,1.89,0,0,1,.58-1.35,1.84,1.84,0,0,1,1.34-.57h9.7a5.14,5.14,0,0,1,5.15,5.15V22.6a5.14,5.14,0,0,1-5.15,5.15Zm1.31-11.61a1.3,1.3,0,0,0-.38-.93,1.26,1.26,0,0,0-.93-.38H165v9.09h7.78a1.31,1.31,0,0,0,1.31-1.32Z"/><path class="cls-2" d="M198.51,25.83V16.14a1.25,1.25,0,0,0-.4-.91,1.21,1.21,0,0,0-.91-.4,1.33,1.33,0,0,0-1.32,1.31V22.6a5.14,5.14,0,1,1-10.28,0V16.14a1.37,1.37,0,0,0-1.31-1.31A1.3,1.3,0,0,0,183,16.14v9.69a1.81,1.81,0,0,1-.58,1.42,2.07,2.07,0,0,1-2.7,0,1.83,1.83,0,0,1-.56-1.42V16.14a5.12,5.12,0,0,1,8.76-3.63,4.93,4.93,0,0,1,1.54,3.63V22.6a1.31,1.31,0,0,0,1.31,1.32,1.22,1.22,0,0,0,.9-.41,1.27,1.27,0,0,0,.39-.91V16.14a5.16,5.16,0,0,1,10.31,0v9.69a1.8,1.8,0,0,1-.57,1.42,2,2,0,0,1-1.35.5,2,2,0,0,1-1.32-.48A1.81,1.81,0,0,1,198.51,25.83Z"/><path class="cls-2" d="M215.19,27.75H205.5a1.81,1.81,0,0,1-1.44-.6,2,2,0,0,1,0-2.63,1.81,1.81,0,0,1,1.44-.6h9.69a1.27,1.27,0,0,0,.93-.39,1.23,1.23,0,0,0,.38-.93,1.31,1.31,0,0,0-.36-1,1.29,1.29,0,0,0-.95-.36h-6.46a5.21,5.21,0,0,1-5.15-5.15A5.19,5.19,0,0,1,208.73,11h9.69a1.81,1.81,0,0,1,1.44.6,2,2,0,0,1,0,2.63,1.82,1.82,0,0,1-1.44.61h-9.69a1.31,1.31,0,0,0,0,2.62h6.46a5.1,5.1,0,0,1,5.15,5.15,5.12,5.12,0,0,1-5.15,5.15Z"/></g></g></g></svg>