<svg xmlns="http://www.w3.org/2000/svg" xmlns:xlink="http://www.w3.org/1999/xlink" viewBox="0 0 217.11 42.99"><defs><style>.cls-1{isolation:isolate;}.cls-2{fill:#fff;}.cls-3,.cls-4,.cls-5{mix-blend-mode:multiply;}.cls-3{fill:url(#linear-gradient);}.cls-4{fill:url(#linear-gradient-2);}.cls-5{fill:url(#linear-gradient-3);}</style><linearGradient id="linear-gradient" x1="641.57" y1="59.83" x2="641.57" y2="26.76" gradientTransform="matrix(0, 1, 1, 0, 84.22, -627.3)" gradientUnits="userSpaceOnUse"><stop offset="0" stop-color="#1ae6fc"/><stop offset="1" stop-color="#0434ba"/></linearGradient><linearGradient id="linear-gradient-2" x1="657.91" y1="400.4" x2="627.3" y2="400.4" gradientTransform="translate(533.59 -627.3) rotate(90)" xlink:href="#linear-gradient"/><linearGradient id="linear-gradient-3" x1="116.65" y1="27.69" x2="149.73" y2="27.69" gradientTransform="matrix(1, 0, 0, 1, 0, 0)" xlink:href="#linear-gradient"/></defs><g class="cls-1"><g id="Layer_2" data-name="Layer 2"><g id="Layer_1-2" data-name="Layer 1"><path class="cls-2" d="M25.45,14.57A1.33,1.33,0,0,0,25,13.49a1.68,1.68,0,0,0-1.11-.38,2.36,2.36,0,0,0-1.44.49A2.33,2.33,0,0,0,21.56,15l-2.08,9.7a1.48,1.48,0,0,1-.56.92,1.55,1.55,0,0,1-1,.39,1.07,1.07,0,0,1-.76-.31,1.08,1.08,0,0,1-.31-.76,1.94,1.94,0,0,1,0-.24l1.4-6.47a6.56,6.56,0,0,0,.1-1.07,4,4,0,0,0-1.16-2.91,4.06,4.06,0,0,0-3-1.17,6.09,6.09,0,0,0-3.95,1.53A6.31,6.31,0,0,0,8,18.26l-1.4,6.47a1.53,1.53,0,0,1-.56.93A1.59,1.59,0,0,1,5,26a1,1,0,0,1-.76-.32A1,1,0,0,1,3.92,25v-.25L6,15a1.94,1.94,0,0,0,.06-.46,1.33,1.33,0,0,0-.45-1.08,1.64,1.64,0,0,0-1.11-.38,2.36,2.36,0,0,0-1.43.49A2.28,2.28,0,0,0,2.18,15L.12,24.73a4.59,4.59,0,0,0-.12,1,4,4,0,0,0,1.18,2.93,4,4,0,0,0,3,1.19,6.14,6.14,0,0,0,4-1.51,6.32,6.32,0,0,0,2.28-3.64l1.39-6.46A1.79,1.79,0,0,1,13.37,17a1.09,1.09,0,0,1,.78.29,1,1,0,0,1,.29.74,1.33,1.33,0,0,1,0,.28L13,24.72a6.3,6.3,0,0,0-.1,1,4,4,0,0,0,1.19,2.93,4,4,0,0,0,3,1.19,6.14,6.14,0,0,0,4-1.51,6.32,6.32,0,0,0,2.28-3.64L25.41,15A3.73,3.73,0,0,0,25.45,14.57Z"/><path class="cls-2" d="M33.5,22.58H31.21a1.51,1.51,0,0,0-1.19.51,1.66,1.66,0,0,0-.46,1.14c0,.69.36,1,1.09,1h2.29a4.19,4.19,0,0,0,2.75-1.06,4.46,4.46,0,0,0,1.59-2.54,4,4,0,0,0,.08-.75,2.77,2.77,0,0,0-.82-2.05,2.88,2.88,0,0,0-2.11-.81H29.91a4.27,4.27,0,0,0-2.76,1.07,4.47,4.47,0,0,0-1.61,2.54l-1,4.52a3.65,3.65,0,0,0-.07.72A2.8,2.8,0,0,0,25.33,29a2.83,2.83,0,0,0,2.09.83h6.79a1.54,1.54,0,0,0,1.21-.54,1.6,1.6,0,0,0,.44-1.12c0-.69-.36-1-1.09-1H28a.67.67,0,0,1-.52-.22.71.71,0,0,1-.22-.53,1,1,0,0,1,0-.17l1-4.52a1.13,1.13,0,0,1,.42-.64,1.08,1.08,0,0,1,.7-.28h4.52a.74.74,0,0,1,.53.2.69.69,0,0,1,.2.52,1.09,1.09,0,0,1-.33.77A1.08,1.08,0,0,1,33.5,22.58Z"/><path class="cls-2" d="M49.48,23.14a2.7,2.7,0,0,0-.81-2,2.89,2.89,0,0,0-2.12-.8H44.29a1.56,1.56,0,0,0-1.2.52A1.69,1.69,0,0,0,42.63,22c0,.69.37,1,1.09,1H46q.75,0,.75.69a.91.91,0,0,1,0,.23l-.48,2.26a1.12,1.12,0,0,1-.41.65,1.06,1.06,0,0,1-.7.27H39.67l1.64-7.7a2.11,2.11,0,0,0,0-.33,1,1,0,0,0-.32-.76,1.21,1.21,0,0,0-.79-.26,1.58,1.58,0,0,0-1,.34,1.65,1.65,0,0,0-.64,1L36.7,28.44a1.15,1.15,0,0,0,0,.26,1,1,0,0,0,.31.77,1.06,1.06,0,0,0,.78.32h6.78a4.29,4.29,0,0,0,2.77-1.06,4.39,4.39,0,0,0,1.6-2.55l.48-2.26A3.53,3.53,0,0,0,49.48,23.14Z"/><path class="cls-2" d="M65.37,14.57a1.33,1.33,0,0,0-.45-1.08,1.73,1.73,0,0,0-1.12-.38,2.33,2.33,0,0,0-1.42.49A2.4,2.4,0,0,0,61.47,15l-2.06,9.7a1.62,1.62,0,0,1-.6.91,1.59,1.59,0,0,1-1,.4H51.36a2.16,2.16,0,0,0-1.71.74A2.37,2.37,0,0,0,49,28.4c0,1,.52,1.48,1.56,1.48H57a6.09,6.09,0,0,0,4-1.53,6.33,6.33,0,0,0,2.29-3.62L65.31,15A1.88,1.88,0,0,0,65.37,14.57Z"/><path class="cls-2" d="M81.77,13.11H72.08a6.09,6.09,0,0,0-4,1.53,6.31,6.31,0,0,0-2.29,3.62l-1.38,6.47a6.09,6.09,0,0,0-.1,1,4,4,0,0,0,1.17,2.93,4,4,0,0,0,3,1.19h9.7A2.23,2.23,0,0,0,80,29.11a2.33,2.33,0,0,0,.63-1.6Q80.58,26,79,26H69.33a1,1,0,0,1-.75-.31,1.06,1.06,0,0,1-.3-.76,1.94,1.94,0,0,1,0-.24l1.38-6.47a1.51,1.51,0,0,1,.59-.9,1.6,1.6,0,0,1,1-.41H81a2.21,2.21,0,0,0,1.74-.77,2.32,2.32,0,0,0,.63-1.59C83.33,13.61,82.81,13.11,81.77,13.11Z"/><path class="cls-2" d="M80.4,19.58H73.93a2.17,2.17,0,0,0-1.7.73,2.41,2.41,0,0,0-.66,1.63q0,1.47,1.56,1.47h6.46a2.24,2.24,0,0,0,1.74-.76,2.4,2.4,0,0,0,.62-1.6C82,20.07,81.43,19.58,80.4,19.58Z"/><path class="cls-2" d="M99.74,13.11H86.82a2.32,2.32,0,0,0-1.66.7,2.24,2.24,0,0,0-.7,1.65,1.53,1.53,0,0,0,.39,1.07A1.51,1.51,0,0,0,86,17h4.55L88.21,28a1.88,1.88,0,0,0-.06.46,1.29,1.29,0,0,0,.49,1.09,1.57,1.57,0,0,0,1.09.37,2.35,2.35,0,0,0,1.44-.51A2.3,2.3,0,0,0,92.05,28L94.4,17h4.54a2.18,2.18,0,0,0,1.73-.77,2.32,2.32,0,0,0,.63-1.59C101.3,13.61,100.78,13.11,99.74,13.11Z"/><path class="cls-3" d="M113.82,8.67,127.52.76a5.68,5.68,0,0,1,5.67,0l8,4.64a5.67,5.67,0,0,1,0,9.82L130.35,21.5l-10.86,6.27A5.67,5.67,0,0,1,111,22.86V13.58A5.67,5.67,0,0,1,113.82,8.67Z"/><path class="cls-4" d="M146.89,8.67,133.19.76a5.68,5.68,0,0,0-5.67,0l-8,4.64a5.67,5.67,0,0,0,0,9.82l10.86,6.28,15.12,8.73a2.84,2.84,0,0,0,4.26-2.46V13.58A5.69,5.69,0,0,0,146.89,8.67Z"/><path class="cls-5" d="M130.35,21.5l-10.86,6.27a5.67,5.67,0,0,0,0,9.82l8,4.64a5.68,5.68,0,0,0,5.67,0l13.7-7.91a5.69,5.69,0,0,0,2.84-4.91V15.22a2.84,2.84,0,0,0-4.26-2.46Z"/><path class="cls-2" d="M166.29,29.88a5.23,5.23,0,0,1-5.15-5.15V15a1.78,1.78,0,0,1,.61-1.43,2,2,0,0,1,2.62,0A1.78,1.78,0,0,1,165,15v9.7A1.37,1.37,0,0,0,166.29,26h6.47a1.78,1.78,0,0,1,1.43.61,2,2,0,0,1,0,2.62,1.78,1.78,0,0,1-1.43.61Z"/><path class="cls-2" d="M195.28,28v-9.7a1.3,1.3,0,0,0-.4-.91A1.27,1.27,0,0,0,194,17a1.31,1.31,0,0,0-.92.38,1.27,1.27,0,0,0-.39.93v6.47a5.14,5.14,0,1,1-10.28,0V18.26a1.26,1.26,0,0,0-.4-.91,1.3,1.3,0,0,0-.91-.4,1.31,1.31,0,0,0-1.32,1.31V28a1.78,1.78,0,0,1-.57,1.41,2,2,0,0,1-2.7,0,1.81,1.81,0,0,1-.56-1.41v-9.7a5.11,5.11,0,0,1,8.76-3.62,4.91,4.91,0,0,1,1.54,3.62v6.47A1.3,1.3,0,0,0,187.52,26a1.21,1.21,0,0,0,.9-.4,1.29,1.29,0,0,0,.39-.91V18.26a5.15,5.15,0,0,1,10.3,0V28a1.81,1.81,0,0,1-.56,1.41,2,2,0,0,1-1.36.51,1.89,1.89,0,0,1-1.31-.49A1.81,1.81,0,0,1,195.28,28Z"/><path class="cls-2" d="M212,29.88h-9.7a1.78,1.78,0,0,1-1.43-.61,2,2,0,0,1,0-2.62,1.78,1.78,0,0,1,1.43-.61H212a1.32,1.32,0,1,0,0-2.63H205.5a5.21,5.21,0,0,1-5.16-5.15,5.23,5.23,0,0,1,5.16-5.15h9.69a1.8,1.8,0,0,1,1.43.61,1.84,1.84,0,0,1,.49,1.31,1.8,1.8,0,0,1-.49,1.31,1.77,1.77,0,0,1-1.43.61H205.5a1.39,1.39,0,0,0-1.32,1.31,1.41,1.41,0,0,0,1.32,1.32H212a5.1,5.1,0,0,1,5.15,5.15A5.16,5.16,0,0,1,212,29.88Z"/></g></g></g></svg>