<svg xmlns="http://www.w3.org/2000/svg" xmlns:xlink="http://www.w3.org/1999/xlink" viewBox="0 0 220.32 40.6"><defs><style>.cls-1{isolation:isolate;}.cls-2{fill:#fff;}.cls-3,.cls-4{mix-blend-mode:multiply;}.cls-3{fill:url(#New_Gradient_Swatch_7);}.cls-4{fill:url(#linear-gradient);}</style><linearGradient id="New_Gradient_Swatch_7" x1="1319.94" y1="-908.26" x2="1360.54" y2="-908.26" gradientTransform="translate(1041.45 1360.54) rotate(-90)" gradientUnits="userSpaceOnUse"><stop offset="0" stop-color="#d22e27"/><stop offset="1" stop-color="#faa91d"/></linearGradient><linearGradient id="linear-gradient" x1="1697.55" y1="-293.54" x2="1738.15" y2="-293.54" gradientTransform="translate(-163.19 -1697.55) rotate(90)" gradientUnits="userSpaceOnUse"><stop offset="0" stop-color="#faee49"/><stop offset="1" stop-color="#d876ae"/></linearGradient></defs><g class="cls-1"><g id="Layer_2" data-name="Layer 2"><g id="Layer_1-2" data-name="Layer 1"><path class="cls-2" d="M25.45,13.37A1.33,1.33,0,0,0,25,12.29a1.67,1.67,0,0,0-1.11-.37,2.35,2.35,0,0,0-1.44.48,2.32,2.32,0,0,0-.89,1.44l-2.08,9.69a1.5,1.5,0,0,1-.56.93,1.55,1.55,0,0,1-1,.39,1,1,0,0,1-.76-.32,1.07,1.07,0,0,1-.31-.76,1.94,1.94,0,0,1,0-.24l1.4-6.46a6.56,6.56,0,0,0,.1-1.07,4,4,0,0,0-1.16-2.92,4.09,4.09,0,0,0-3-1.16,6.13,6.13,0,0,0-3.95,1.52A6.34,6.34,0,0,0,8,17.07l-1.4,6.46a1.47,1.47,0,0,1-.56.93,1.55,1.55,0,0,1-1,.39,1.08,1.08,0,0,1-1.07-1.08v-.24L6,13.84a2,2,0,0,0,.06-.47,1.33,1.33,0,0,0-.45-1.08,1.64,1.64,0,0,0-1.11-.37,2.35,2.35,0,0,0-1.43.48,2.28,2.28,0,0,0-.89,1.44L.12,23.53a4.66,4.66,0,0,0-.12,1A4,4,0,0,0,1.18,27.5a4,4,0,0,0,3,1.18,6.13,6.13,0,0,0,4-1.5,6.34,6.34,0,0,0,2.28-3.65l1.39-6.46a1.6,1.6,0,0,1,.58-.91,1.56,1.56,0,0,1,1-.4,1,1,0,0,1,.78.29,1,1,0,0,1,.29.74,1.41,1.41,0,0,1,0,.28L13,23.53a6.09,6.09,0,0,0-.1,1,4,4,0,0,0,4.17,4.12,6.13,6.13,0,0,0,4-1.5,6.34,6.34,0,0,0,2.28-3.65l2.08-9.69A3.89,3.89,0,0,0,25.45,13.37Z"/><path class="cls-2" d="M33.5,21.38H31.21A1.49,1.49,0,0,0,30,21.9,1.65,1.65,0,0,0,29.56,23c0,.68.36,1,1.09,1h2.29A4.24,4.24,0,0,0,35.69,23a4.48,4.48,0,0,0,1.59-2.55,3.82,3.82,0,0,0,.08-.75,2.74,2.74,0,0,0-.82-2,2.88,2.88,0,0,0-2.11-.81H29.91a4.26,4.26,0,0,0-2.76,1.06,4.51,4.51,0,0,0-1.61,2.54l-1,4.53a3.51,3.51,0,0,0-.07.72,2.82,2.82,0,0,0,2.91,2.88h6.79a1.54,1.54,0,0,0,1.21-.54,1.6,1.6,0,0,0,.44-1.11c0-.69-.36-1-1.09-1H28a.71.71,0,0,1-.52-.22.73.73,0,0,1-.22-.53.88.88,0,0,1,0-.17l1-4.53a1.14,1.14,0,0,1,.42-.63,1.1,1.1,0,0,1,.7-.29h4.52a.71.71,0,0,1,.53.21.69.69,0,0,1,.2.51,1.12,1.12,0,0,1-.33.78A1.07,1.07,0,0,1,33.5,21.38Z"/><path class="cls-2" d="M49.48,22a2.73,2.73,0,0,0-.81-2,2.88,2.88,0,0,0-2.12-.79H44.29a1.53,1.53,0,0,0-1.2.52,1.69,1.69,0,0,0-.46,1.13c0,.69.37,1,1.09,1H46q.75,0,.75.69a.83.83,0,0,1,0,.22L46.22,25a1.12,1.12,0,0,1-.41.65,1.06,1.06,0,0,1-.7.27H39.67l1.64-7.71a1.87,1.87,0,0,0,0-.32.93.93,0,0,0-.32-.76,1.21,1.21,0,0,0-.79-.26,1.58,1.58,0,0,0-1,.34,1.63,1.63,0,0,0-.64,1L36.7,27.25a1.07,1.07,0,0,0,0,.25,1.06,1.06,0,0,0,1.09,1.09h6.78a4.28,4.28,0,0,0,2.77-1.05A4.39,4.39,0,0,0,48.91,25l.48-2.27A3.44,3.44,0,0,0,49.48,22Z"/><path class="cls-2" d="M65.37,13.37a1.33,1.33,0,0,0-.45-1.08,1.72,1.72,0,0,0-1.12-.37,2.32,2.32,0,0,0-1.42.48,2.39,2.39,0,0,0-.91,1.44l-2.06,9.69a1.59,1.59,0,0,1-.6.91,1.55,1.55,0,0,1-1,.41H51.36a2.19,2.19,0,0,0-1.71.73A2.4,2.4,0,0,0,49,27.21q0,1.47,1.56,1.47H57a6.13,6.13,0,0,0,4-1.52,6.39,6.39,0,0,0,2.29-3.63l2.06-9.69A2,2,0,0,0,65.37,13.37Z"/><path class="cls-2" d="M81.77,11.92H72.08a6.13,6.13,0,0,0-4,1.52,6.34,6.34,0,0,0-2.29,3.63l-1.38,6.46a6.19,6.19,0,0,0-.1,1,4,4,0,0,0,4.16,4.12h9.7A2.19,2.19,0,0,0,80,27.91a2.32,2.32,0,0,0,.63-1.59q0-1.47-1.56-1.47H69.33a1,1,0,0,1-.75-.32,1.05,1.05,0,0,1-.3-.75,2,2,0,0,1,0-.25l1.38-6.46a1.53,1.53,0,0,1,.59-.91,1.58,1.58,0,0,1,1-.4H81A2.25,2.25,0,0,0,82.7,15a2.33,2.33,0,0,0,.63-1.6Q83.33,11.92,81.77,11.92Z"/><path class="cls-2" d="M80.4,18.38H73.93a2.18,2.18,0,0,0-1.7.74,2.38,2.38,0,0,0-.66,1.63q0,1.47,1.56,1.47h6.46a2.25,2.25,0,0,0,1.74-.77A2.36,2.36,0,0,0,82,19.86C82,18.87,81.43,18.38,80.4,18.38Z"/><path class="cls-2" d="M99.74,11.92H86.82a2.28,2.28,0,0,0-1.66.7,2.22,2.22,0,0,0-.7,1.64,1.52,1.52,0,0,0,.39,1.07,1.48,1.48,0,0,0,1.16.43h4.55l-2.35,11a2,2,0,0,0-.06.47,1.3,1.3,0,0,0,.49,1.09,1.61,1.61,0,0,0,1.09.36,2.4,2.4,0,0,0,1.44-.5,2.32,2.32,0,0,0,.88-1.42l2.35-11h4.54a2.21,2.21,0,0,0,1.73-.77,2.33,2.33,0,0,0,.63-1.6Q101.3,11.92,99.74,11.92Z"/><path class="cls-3" d="M149.73,2.84V37.76a2.84,2.84,0,0,1-4.26,2.46l-26-15a5.67,5.67,0,0,1,0-9.82l26-15A2.84,2.84,0,0,1,149.73,2.84Z"/><path class="cls-4" d="M111,37.76V2.84A2.84,2.84,0,0,1,115.24.38L149.73,20.3,115.24,40.22A2.84,2.84,0,0,1,111,37.76Z"/><path class="cls-2" d="M180.51,26.76V17.07a1.27,1.27,0,0,0-.39-.91,1.25,1.25,0,0,0-.92-.4,1.29,1.29,0,0,0-.92.38,1.27,1.27,0,0,0-.39.93v6.46a5.14,5.14,0,1,1-10.28,0V17.07a1.39,1.39,0,0,0-1.32-1.31A1.3,1.3,0,0,0,165,17.07v9.69a1.78,1.78,0,0,1-.58,1.42,2.06,2.06,0,0,1-2.69,0,1.8,1.8,0,0,1-.57-1.42V17.07a5.15,5.15,0,0,1,10.3,0v6.46a1.33,1.33,0,0,0,1.32,1.32,1.22,1.22,0,0,0,.89-.41,1.25,1.25,0,0,0,.4-.91V17.07a5.15,5.15,0,0,1,10.3,0v9.69a1.8,1.8,0,0,1-.57,1.42,2,2,0,0,1-1.35.5,1.91,1.91,0,0,1-1.31-.48A1.79,1.79,0,0,1,180.51,26.76Z"/><path class="cls-2" d="M197.19,28.68H187.5a1.83,1.83,0,0,1-1.44-.6,2,2,0,0,1,0-2.63,1.83,1.83,0,0,1,1.44-.6h9.69a1.33,1.33,0,0,0,1.32-1.32,1.27,1.27,0,0,0-.37-1,1.29,1.29,0,0,0-.95-.36h-6.46a5.21,5.21,0,0,1-5.15-5.15,5.21,5.21,0,0,1,5.15-5.15h9.7a1.78,1.78,0,0,1,1.43.61,2,2,0,0,1,0,2.62,1.81,1.81,0,0,1-1.43.61h-9.7a1.31,1.31,0,0,0,0,2.62h6.46a5.1,5.1,0,0,1,5.15,5.15,5.12,5.12,0,0,1-5.15,5.15Z"/><path class="cls-2" d="M215.17,28.68h-6.46a5.19,5.19,0,0,1-5.15-5.15V17.07a5.19,5.19,0,0,1,5.15-5.15h9.69a1.77,1.77,0,0,1,1.43.61,2,2,0,0,1,0,2.62,1.8,1.8,0,0,1-1.43.61h-9.69a1.39,1.39,0,0,0-1.32,1.31v6.46a1.41,1.41,0,0,0,1.32,1.32h6.46a1.31,1.31,0,0,0,1.31-1.32,1.35,1.35,0,0,0-.35-.94,1.21,1.21,0,0,0-.92-.37h-3.27a1.79,1.79,0,0,1-1.44-.61,2,2,0,0,1,0-2.62,1.79,1.79,0,0,1,1.44-.61h3.27a4.92,4.92,0,0,1,3.64,1.5,5.22,5.22,0,0,1,0,7.3A5,5,0,0,1,215.17,28.68Z"/></g></g></g></svg>