<svg width="300" height="60" viewBox="0 0 300 60" fill="none" xmlns="http://www.w3.org/2000/svg">
<path d="M199.995 27.122L192.597 22.8476L199.995 18.5732C202.568 17.0888 202.568 13.3747 199.995 11.8873L179.41 0L153.037 15.2318V45.6923L175.549 58.6945C177.937 60.0733 180.88 60.0733 183.271 58.6945L199.995 49.0338C202.568 47.5494 202.568 43.8353 199.995 42.3479L192.597 38.0735L199.995 33.7991C202.568 32.3147 202.568 28.6006 199.995 27.1132V27.122Z" fill="white"/>
<path d="M34.6434 20.4358C34.6434 19.7933 34.441 19.3034 34.0361 18.966C33.6313 18.6257 33.1267 18.4556 32.5224 18.4556C31.8065 18.4556 31.1553 18.6756 30.5685 19.1156C29.9261 19.5909 29.5242 20.2422 29.3569 21.0665L26.526 34.2652C26.435 34.761 26.1798 35.1835 25.7574 35.5297C25.3379 35.8788 24.8802 36.0519 24.3844 36.0519C23.9825 36.0519 23.6393 35.911 23.3547 35.6265C23.0702 35.3419 22.9293 34.9987 22.9293 34.5967C22.9293 34.4882 22.9381 34.3767 22.9587 34.2682L24.8567 25.47C24.9477 24.9742 24.9946 24.4902 24.9946 24.012C24.9946 22.416 24.4666 21.0929 23.4134 20.0397C22.3573 18.9866 20.999 18.4585 19.3298 18.4585C17.4229 18.4585 15.6304 19.1508 13.9524 20.5355C12.2744 21.9202 11.2358 23.5661 10.831 25.47L8.93294 34.2682C8.842 34.764 8.58384 35.1864 8.16139 35.5326C7.73895 35.8817 7.2813 36.0548 6.78551 36.0548C6.38067 36.0548 6.03744 35.911 5.75581 35.6265C5.47124 35.3419 5.33043 34.9957 5.33043 34.5938C5.33043 34.4853 5.33043 34.3738 5.33336 34.2623L8.16726 21.0636C8.22006 20.8436 8.24353 20.6324 8.24353 20.4329C8.24353 19.7933 8.04111 19.3034 7.6392 18.9631C7.2373 18.6257 6.73271 18.4556 6.12838 18.4556C5.41257 18.4556 4.76423 18.6756 4.17751 19.1156C3.53504 19.5938 3.13313 20.2422 2.96885 21.0695L0.164284 34.2682C0.0557396 34.7464 0 35.2128 0 35.6705C0 37.2635 0.536857 38.5983 1.61057 39.672C2.68428 40.7458 4.03669 41.2826 5.6678 41.2826C7.6128 41.2826 9.41406 40.5991 11.0745 39.2349C12.7349 37.8678 13.7646 36.2162 14.1695 34.274L16.0676 25.4759C16.1585 25.0182 16.4255 24.6046 16.8626 24.2379C17.3026 23.8712 17.7515 23.6863 18.2062 23.6863C18.6609 23.6863 18.9983 23.8183 19.2623 24.0853C19.5263 24.3493 19.6613 24.6838 19.6613 25.0886C19.6613 25.2177 19.6495 25.3439 19.6261 25.473L17.728 34.2711C17.64 34.7493 17.5989 35.2158 17.5989 35.6734C17.5989 37.2693 18.1358 38.6012 19.2066 39.675C20.2803 40.7487 21.6297 41.2856 23.2638 41.2856C25.2059 41.2856 27.0071 40.602 28.6675 39.2349C30.3251 37.8708 31.3577 36.2162 31.7596 34.2711L34.5906 21.0724C34.6258 20.8524 34.6463 20.6412 34.6463 20.4387L34.6434 20.4358Z" fill="white"/>
<path d="M45.612 31.3385H42.4935C41.8276 31.3385 41.2849 31.5732 40.8653 32.0426C40.4488 32.512 40.2405 33.0283 40.2405 33.5916C40.2405 34.5303 40.7333 34.9968 41.722 34.9968H44.8404C46.187 34.9968 47.4396 34.5157 48.5926 33.5534C49.7484 32.5912 50.4642 31.4353 50.7488 30.0887C50.825 29.7425 50.8632 29.4022 50.8632 29.0678C50.8632 27.953 50.4906 27.0259 49.7455 26.2867C49.0003 25.5503 48.044 25.1806 46.8764 25.1806H40.7157C39.3809 25.1806 38.1282 25.6647 36.9519 26.6328C35.7784 27.6009 35.0479 28.7539 34.7663 30.0887L33.4579 36.2495C33.3934 36.5839 33.3611 36.9096 33.3611 37.2323C33.3611 38.35 33.7337 39.2829 34.4788 40.034C35.2239 40.785 36.1715 41.1605 37.3274 41.1605H46.5654C47.2313 41.1605 47.7829 40.917 48.22 40.4271C48.619 39.9782 48.8155 39.4707 48.8155 38.9074C48.8155 37.9716 48.3227 37.5022 47.334 37.5022H38.096C37.8144 37.5022 37.5767 37.4024 37.3831 37.2029C37.1895 37.0034 37.0956 36.7629 37.0956 36.4812C37.0956 36.405 37.1015 36.3287 37.1191 36.2495L38.4275 30.0887C38.492 29.769 38.6798 29.4785 38.9937 29.2233C39.3076 28.9681 39.6244 28.839 39.9471 28.839H46.1048C46.4011 28.839 46.6417 28.9328 46.8265 29.1177C47.0113 29.3025 47.1052 29.5372 47.1052 29.8218C47.1052 30.2061 46.9497 30.5552 46.6417 30.8691C46.3336 31.183 45.9875 31.3414 45.6032 31.3414L45.612 31.3385Z" fill="white"/>
<path d="M67.3624 32.1086C67.3624 30.9791 66.9957 30.055 66.2652 29.3362C65.5347 28.6175 64.5725 28.2596 63.3785 28.2596H60.2982C59.6322 28.2596 59.0895 28.4943 58.6729 28.9636C58.2563 29.433 58.0481 29.9494 58.0481 30.5126C58.0481 31.4485 58.5409 31.9179 59.5295 31.9179H62.6099C63.2905 31.9179 63.6308 32.2318 63.6308 32.8596C63.6308 32.9623 63.6161 33.065 63.5897 33.1676L62.9355 36.248C62.8592 36.5942 62.6715 36.8905 62.3781 37.134C62.0847 37.3775 61.762 37.5007 61.4159 37.5007H54.0143L56.2439 27.0098C56.2791 26.8573 56.2996 26.7076 56.2996 26.5668C56.2996 26.118 56.1559 25.7747 55.8654 25.5371C55.5779 25.2995 55.22 25.1821 54.7976 25.1821C54.3106 25.1821 53.8617 25.3347 53.451 25.6427C53.0022 25.9771 52.7147 26.4319 52.5856 27.0098L49.9688 39.3284C49.9424 39.4428 49.9307 39.5602 49.9307 39.6746C49.9307 40.097 50.0715 40.452 50.3531 40.7336C50.6347 41.0153 50.9897 41.1561 51.4122 41.1561H60.6502C61.9967 41.1561 63.2553 40.6779 64.4229 39.7215C65.5904 38.7651 66.3151 37.6063 66.5967 36.248L67.2509 33.1676C67.3272 32.8068 67.3653 32.4547 67.3653 32.1086H67.3624Z" fill="white"/>
<path d="M89.0039 20.4358C89.0039 19.7933 88.7986 19.3034 88.3849 18.966C87.9713 18.6257 87.4638 18.4556 86.8565 18.4556C86.1583 18.4556 85.5158 18.6756 84.9291 19.1156C84.2866 19.5938 83.8759 20.2422 83.6911 21.0665L80.8866 34.2652C80.7956 34.7229 80.5257 35.1366 80.0739 35.5033C79.6251 35.87 79.1704 36.0519 78.7127 36.0519H69.9177C68.9642 36.0519 68.1898 36.3863 67.5942 37.0552C66.9987 37.7241 66.7024 38.4634 66.7024 39.2701C66.7024 40.6079 67.4094 41.2768 68.8205 41.2768H77.6185C79.5253 41.2768 81.3178 40.5844 82.9929 39.1997C84.6709 37.815 85.7095 36.1721 86.1143 34.2652L88.9189 21.0665C88.9746 20.8465 89.001 20.6353 89.001 20.4329L89.0039 20.4358Z" fill="white"/>
<path d="M111.332 18.4556H98.1331C96.2262 18.4556 94.4337 19.1479 92.7586 20.5326C91.0806 21.9173 90.0391 23.5631 89.6372 25.4671L87.7685 34.2652C87.6776 34.7434 87.6306 35.2099 87.6306 35.6676C87.6306 37.2605 88.1616 38.5954 89.2265 39.6691C90.2885 40.7428 91.6468 41.2797 93.2955 41.2797H106.494C107.447 41.2797 108.237 40.9306 108.858 40.2353C109.428 39.5958 109.709 38.8711 109.709 38.0644C109.709 36.7266 109.005 36.0577 107.591 36.0577H94.3927C93.9878 36.0577 93.6505 35.9169 93.3747 35.6323C93.0989 35.3478 92.961 35.0045 92.961 34.6026C92.961 34.4911 92.9728 34.3826 92.9933 34.274L94.865 25.473C94.9559 25.0153 95.2258 24.6016 95.6747 24.2349C96.1235 23.8682 96.5782 23.6834 97.0359 23.6834H110.231C111.185 23.6834 111.971 23.3343 112.596 22.639C113.165 21.9995 113.45 21.2748 113.45 20.4681C113.45 19.1303 112.743 18.4614 111.332 18.4614V18.4556Z" fill="white"/>
<path d="M109.46 27.2563H100.662C99.7084 27.2563 98.9339 27.5908 98.3384 28.2597C97.7428 28.9285 97.4436 29.6678 97.4436 30.4717C97.4436 31.8094 98.1506 32.4783 99.5617 32.4783H108.36C109.313 32.4783 110.102 32.1292 110.724 31.4339C111.29 30.7914 111.575 30.0697 111.575 29.263C111.575 27.9252 110.868 27.2563 109.457 27.2563H109.46Z" fill="white"/>
<path d="M135.804 18.4556H118.208C117.346 18.4556 116.595 18.7724 115.952 19.4031C115.31 20.0368 114.99 20.782 114.99 21.6445C114.99 22.2312 115.169 22.7182 115.527 23.1025C115.885 23.4868 116.41 23.6805 117.108 23.6805H123.295L120.107 38.6658C120.051 38.8858 120.024 39.097 120.024 39.2995C120.024 39.9419 120.244 40.4377 120.684 40.7839C121.069 41.1154 121.565 41.2797 122.169 41.2797C122.864 41.2797 123.521 41.0509 124.137 40.5932C124.75 40.1356 125.149 39.4931 125.334 38.6687L128.523 23.6805H134.707C135.661 23.6805 136.447 23.3314 137.072 22.6361C137.641 21.9965 137.925 21.2719 137.925 20.4651C137.925 19.1274 137.218 18.4585 135.807 18.4585L135.804 18.4556Z" fill="white"/>
<path style="mix-blend-mode:multiply" d="M153.037 15.2332V45.6938L179.41 30.465V0.00146484L153.037 15.2332Z" fill="url(#paint0_linear_3762_1531)"/>
<path style="mix-blend-mode:multiply" d="M183.271 58.6964L199.995 49.0357C202.568 47.5513 202.568 43.8372 199.995 42.3498L179.41 30.4625L153.037 45.6942L175.549 58.6964C177.937 60.0752 180.88 60.0752 183.271 58.6964Z" fill="url(#paint1_linear_3762_1531)"/>
<path style="mix-blend-mode:multiply" d="M183.271 43.4683L199.995 33.8076C202.568 32.3231 202.568 28.6091 199.995 27.1217L179.41 15.2344L153.037 30.4661L175.549 43.4683C177.937 44.8471 180.88 44.8471 183.271 43.4683Z" fill="url(#paint2_linear_3762_1531)"/>
<path style="mix-blend-mode:multiply" d="M183.271 28.2354L199.995 18.5747C202.568 17.0902 202.568 13.3762 199.995 11.8888L179.41 0.00146484L153.037 15.2332L175.549 28.2354C177.937 29.6142 180.88 29.6142 183.271 28.2354Z" fill="url(#paint3_linear_3762_1531)"/>
<path d="M226.413 41.2805C224.506 41.2805 222.86 40.5881 221.475 39.2034C220.091 37.8187 219.398 36.1729 219.398 34.266V25.4649C219.398 23.558 220.091 21.9122 221.475 20.5275C222.86 19.1428 224.506 18.4504 226.413 18.4504H239.614C240.439 18.4504 241.09 18.7262 241.568 19.2748C242.008 19.753 242.228 20.3485 242.228 21.0614C242.228 21.7743 242.008 22.3728 241.568 22.848C241.09 23.3966 240.441 23.6724 239.614 23.6724H226.413C225.955 23.6724 225.542 23.8572 225.175 24.221C224.808 24.5877 224.626 25.0014 224.626 25.459V34.2601C224.626 34.7178 224.808 35.1314 225.175 35.4981C225.542 35.8648 225.952 36.0497 226.413 36.0497H239.614C240.439 36.0497 241.09 36.3254 241.568 36.874C242.008 37.3522 242.228 37.9478 242.228 38.6607C242.228 39.3735 242.008 39.972 241.568 40.4473C241.09 40.9959 240.441 41.2716 239.614 41.2716H226.413V41.2805Z" fill="white"/>
<path d="M270.277 38.6687V25.47C270.277 25.0124 270.098 24.5987 269.74 24.232C269.382 23.8653 268.965 23.6834 268.49 23.6834C268.015 23.6834 267.595 23.8594 267.24 24.2056C266.882 24.5547 266.703 24.9742 266.703 25.47V34.2711C266.703 36.178 266.011 37.8238 264.629 39.2085C263.245 40.5932 261.608 41.2856 259.721 41.2856C257.835 41.2856 256.125 40.602 254.758 39.2379C253.39 37.8708 252.71 36.2191 252.71 34.274V25.473C252.71 25.0153 252.525 24.6016 252.161 24.2349C251.795 23.8682 251.381 23.6863 250.923 23.6863C250.428 23.6863 250.005 23.8624 249.659 24.2085C249.31 24.5576 249.137 24.9772 249.137 25.473V38.6717C249.137 39.496 248.876 40.1385 248.353 40.5962C247.831 41.0538 247.221 41.2826 246.526 41.2826C245.831 41.2826 245.197 41.0538 244.683 40.5962C244.17 40.1385 243.915 39.496 243.915 38.6717V25.473C243.915 23.5308 244.598 21.8762 245.963 20.5091C247.33 19.142 248.984 18.4585 250.926 18.4585C252.868 18.4585 254.455 19.1508 255.849 20.5355C257.242 21.9202 257.938 23.5661 257.938 25.473V34.274C257.938 34.7698 258.111 35.1923 258.46 35.5385C258.809 35.8876 259.228 36.0607 259.724 36.0607C260.182 36.0607 260.593 35.8758 260.948 35.5091C261.305 35.1424 261.484 34.7317 261.484 34.2711V25.47C261.484 23.5279 262.174 21.8733 263.547 20.5062C264.923 19.1391 266.571 18.4556 268.496 18.4556C270.42 18.4556 272.048 19.1479 273.433 20.5326C274.818 21.9173 275.507 23.5631 275.507 25.47V38.6687C275.507 39.4931 275.252 40.1356 274.739 40.5932C274.225 41.0509 273.612 41.2797 272.896 41.2797C272.18 41.2797 271.603 41.0597 271.11 40.6196C270.561 40.1444 270.285 39.4931 270.285 38.6658L270.277 38.6687Z" fill="white"/>
<path d="M292.989 41.2801H279.787C278.963 41.2801 278.312 41.0043 277.833 40.4557C277.393 39.9804 277.173 39.382 277.173 38.6691C277.173 37.9562 277.393 37.3577 277.833 36.8825C278.312 36.3339 278.96 36.0581 279.787 36.0581H292.989C293.484 36.0581 293.907 35.8821 294.253 35.5359C294.602 35.1868 294.775 34.7673 294.775 34.2715C294.775 33.7405 294.611 33.3092 294.279 32.9806C293.951 32.6521 293.52 32.4849 292.986 32.4849H284.185C282.278 32.4849 280.632 31.7925 279.247 30.4078C277.863 29.0231 277.17 27.3802 277.17 25.4733C277.17 23.5664 277.863 21.9206 279.247 20.5359C280.632 19.1512 282.278 18.4588 284.185 18.4588H297.386C298.211 18.4588 298.862 18.7346 299.34 19.2832C299.78 19.7614 300 20.3569 300 21.0698C300 21.7827 299.78 22.3812 299.34 22.8565C298.862 23.4051 298.213 23.6808 297.386 23.6808H284.185C283.727 23.6808 283.313 23.8656 282.947 24.2294C282.58 24.5961 282.398 25.0098 282.398 25.4674C282.398 25.9251 282.58 26.3388 282.947 26.7055C283.313 27.0722 283.724 27.2541 284.185 27.2541H292.986C294.948 27.2541 296.606 27.9318 297.964 29.2901C299.322 30.6484 300 32.3059 300 34.2685C300 36.2312 299.316 37.8653 297.952 39.2324C296.585 40.5995 294.931 41.2801 292.989 41.2801Z" fill="white"/>
<defs>
<linearGradient id="paint0_linear_3762_1531" x1="153.037" y1="22.8491" x2="179.41" y2="22.8491" gradientUnits="userSpaceOnUse">
<stop stop-color="#1A7EFC"/>
<stop offset="1" stop-color="#0434BA"/>
</linearGradient>
<linearGradient id="paint1_linear_3762_1531" x1="201.926" y1="45.0958" x2="153.037" y2="45.0958" gradientUnits="userSpaceOnUse">
<stop stop-color="#27B373"/>
<stop offset="1" stop-color="#2D489D"/>
</linearGradient>
<linearGradient id="paint2_linear_3762_1531" x1="201.926" y1="29.8706" x2="153.037" y2="29.8706" gradientUnits="userSpaceOnUse">
<stop stop-color="#29B473"/>
<stop offset="1" stop-color="#0434BA"/>
</linearGradient>
<linearGradient id="paint3_linear_3762_1531" x1="175.893" y1="14.6347" x2="175.599" y2="14.6347" gradientUnits="userSpaceOnUse">
<stop stop-color="#29B473"/>
<stop offset="1" stop-color="#0434BA"/>
</linearGradient>
</defs>
</svg>
