<svg id="Group_8" data-name="Group 8" xmlns="http://www.w3.org/2000/svg" xmlns:xlink="http://www.w3.org/1999/xlink" width="54" height="74" viewBox="0 0 54 74">
  <defs>
    <clipPath id="clip-path">
      <path id="Clip_2" data-name="Clip 2" d="M0,0H53.574V66.867H0Z" transform="translate(0 0.132)" fill="none"/>
    </clipPath>
    <clipPath id="clip-path-2">
      <path id="Clip_5" data-name="Clip 5" d="M0,74H54V0H0Z" fill="none"/>
    </clipPath>
  </defs>
  <g id="Group_3" data-name="Group 3" transform="translate(0 7)">
    <path id="Clip_2-2" data-name="Clip 2" d="M0,0H53.574V66.867H0Z" transform="translate(0 0.132)" fill="none"/>
    <g id="Group_3-2" data-name="Group 3" clip-path="url(#clip-path)">
      <path id="Fill_1" data-name="Fill 1" d="M46.848,66.867H6.728A6.613,6.613,0,0,1,.009,60.722,6.461,6.461,0,0,1,1.778,55.9a6.7,6.7,0,0,1,.565-.533,6.512,6.512,0,0,1,0-10,6.514,6.514,0,0,1,0-10.009,6.514,6.514,0,0,1,0-10.007,6.344,6.344,0,0,1-.565-.531A6.463,6.463,0,0,1,.009,19.992a6.614,6.614,0,0,1,6.718-6.146A11.136,11.136,0,0,0,17.8,2.678V1.487A1.486,1.486,0,0,1,19.287,0h15A1.484,1.484,0,0,1,35.77,1.487v1.19a11.187,11.187,0,0,0,3.01,7.656,1.483,1.483,0,1,1-2.16,2.034,14.144,14.144,0,0,1-3.808-9.393H20.763A14.107,14.107,0,0,1,6.728,16.824a3.7,3.7,0,0,0-3.761,3.326,3.51,3.51,0,0,0,.958,2.618,3.436,3.436,0,0,0,2.522,1.09,1.488,1.488,0,0,1,0,2.975,3.517,3.517,0,0,0,0,7.034,1.488,1.488,0,0,1,0,2.975,3.517,3.517,0,0,0,0,7.034,1.488,1.488,0,0,1,0,2.975,3.517,3.517,0,0,0,0,7.034,1.488,1.488,0,0,1,0,2.975,3.436,3.436,0,0,0-2.522,1.09,3.51,3.51,0,0,0-.958,2.618,3.7,3.7,0,0,0,3.761,3.326h40.12a3.7,3.7,0,0,0,3.761-3.326,3.51,3.51,0,0,0-.958-2.618,3.436,3.436,0,0,0-2.522-1.09,1.488,1.488,0,0,1,0-2.975,3.517,3.517,0,0,0,0-7.034,1.488,1.488,0,0,1,0-2.975,3.517,3.517,0,0,0,0-7.034,1.488,1.488,0,0,1,0-2.975,3.517,3.517,0,0,0,0-7.034,1.488,1.488,0,0,1,0-2.975,3.436,3.436,0,0,0,2.522-1.09,3.51,3.51,0,0,0,.958-2.618,3.7,3.7,0,0,0-3.761-3.326,13.913,13.913,0,0,1-4.195-.644,1.486,1.486,0,0,1,.886-2.837,11.053,11.053,0,0,0,3.308.5,6.615,6.615,0,0,1,6.718,6.148A6.463,6.463,0,0,1,51.8,24.814a6.1,6.1,0,0,1-.567.533,6.514,6.514,0,0,1,0,10.007,6.514,6.514,0,0,1,0,10.009,6.512,6.512,0,0,1,0,10,6.722,6.722,0,0,1,.567.533,6.471,6.471,0,0,1,1.766,4.822,6.614,6.614,0,0,1-6.718,6.146" transform="translate(-0.001 0.132)" fill="#8898aa"/>
    </g>
  </g>
  <path id="Clip_5-2" data-name="Clip 5" d="M0,74H54V0H0Z" fill="none"/>
  <g clip-path="url(#clip-path-2)">
    <path id="Fill_4" data-name="Fill 4" d="M26.529,10H1.471A1.487,1.487,0,0,1,0,8.5v-7A1.487,1.487,0,0,1,1.471,0H26.529A1.487,1.487,0,0,1,28,1.5v7A1.487,1.487,0,0,1,26.529,10ZM2.94,3V7H25.06V3Z" transform="translate(13)" fill="#8898aa"/>
    <path id="Fill_6" data-name="Fill 6" d="M16.547,31H1.455A1.469,1.469,0,0,1,0,29.517v-9a1.469,1.469,0,0,1,1.455-1.483,1.467,1.467,0,0,1,1.451,1.483v7.512H15.094V2.966H2.906V9.487A1.468,1.468,0,0,1,1.455,10.97,1.47,1.47,0,0,1,0,9.487V1.481A1.468,1.468,0,0,1,1.455,0H16.547A1.468,1.468,0,0,1,18,1.481V29.517A1.468,1.468,0,0,1,16.547,31" transform="translate(18 29)" fill="#8898aa"/>
    <path id="Fill_7" data-name="Fill 7" d="M1.5,3A1.436,1.436,0,0,1,.45,2.561,1.546,1.546,0,0,1,0,1.487,1.475,1.475,0,0,1,.45.429,1.539,1.539,0,0,1,2.565.412a1.544,1.544,0,0,1,0,2.149A1.494,1.494,0,0,1,1.5,3" transform="translate(18 43)" fill="#8898aa"/>
  </g>
</svg>
