<svg xmlns="http://www.w3.org/2000/svg" xmlns:xlink="http://www.w3.org/1999/xlink" width="81.803" height="81.999" viewBox="0 0 81.803 81.999">
  <defs>
    <clipPath id="clip-path">
      <path id="Clip_14" data-name="Clip 14" d="M0,0H51.179V50.893H0Z" transform="translate(0 0.107)" fill="none"/>
    </clipPath>
    <clipPath id="clip-path-2">
      <path id="Clip_19" data-name="Clip 19" d="M0,0H13.148V12.678H0Z" transform="translate(0.654 0.001)" fill="none"/>
    </clipPath>
  </defs>
  <g id="Group_21" data-name="Group 21" transform="translate(0 -0.501)">
    <path id="Fill_1" data-name="Fill 1" d="M1.621,11a1.608,1.608,0,0,1-1.148-.481,1.625,1.625,0,0,1,0-2.3L8.236.472a1.624,1.624,0,0,1,2.287,2.305L2.764,10.526A1.614,1.614,0,0,1,1.621,11" transform="translate(41 65.5)" fill="#8898aa"/>
    <path id="Fill_3" data-name="Fill 3" d="M2,4A2.02,2.02,0,0,1,0,1.989,2.084,2.084,0,0,1,.58.56a2.079,2.079,0,0,1,2.84,0A2.084,2.084,0,0,1,4,1.989,2.02,2.02,0,0,1,2,4" transform="translate(54 58.5)" fill="#8898aa"/>
    <path id="Fill_5" data-name="Fill 5" d="M1.615,44A1.614,1.614,0,0,1,.475,41.243l7.973-7.935A21.319,21.319,0,0,0,14.771,18.1,21.506,21.506,0,0,0,8.38,2.758,1.613,1.613,0,0,1,10.656.471,24.716,24.716,0,0,1,18,18.1a24.523,24.523,0,0,1-7.272,17.5L2.754,43.53A1.611,1.611,0,0,1,1.615,44" transform="translate(61 10.5)" fill="#8898aa"/>
    <path id="Fill_7" data-name="Fill 7" d="M35.35,10a1.668,1.668,0,0,1-1.164-.468A22.713,22.713,0,0,0,2.811,9.463a1.676,1.676,0,0,1-2.33,0,1.575,1.575,0,0,1,0-2.271,26.078,26.078,0,0,1,36.029.069,1.575,1.575,0,0,1,0,2.271A1.66,1.66,0,0,1,35.35,10" transform="translate(35 3.5)" fill="#8898aa"/>
    <path id="Fill_9" data-name="Fill 9" d="M16.287,6a1.775,1.775,0,0,1-1.209-.465,9.083,9.083,0,0,0-12.155-.03A1.8,1.8,0,0,1,.5,5.5,1.517,1.517,0,0,1,.506,3.246a12.7,12.7,0,0,1,16.99.027,1.52,1.52,0,0,1,0,2.257A1.776,1.776,0,0,1,16.287,6" transform="translate(45 12.5)" fill="#8898aa"/>
    <path id="Fill_11" data-name="Fill 11" d="M1.624,32A1.629,1.629,0,0,1,.478,29.216L29.232.473a1.626,1.626,0,0,1,2.291,2.309L2.769,31.525A1.616,1.616,0,0,1,1.624,32" transform="translate(7 10.5)" fill="#8898aa"/>
    <g id="Group_15" data-name="Group 15" transform="translate(0 31.5)">
      <path id="Clip_14-2" data-name="Clip 14" d="M0,0H51.179V50.893H0Z" transform="translate(0 0.107)" fill="none"/>
      <g id="Group_15-2" data-name="Group 15" clip-path="url(#clip-path)">
        <path id="Fill_13" data-name="Fill 13" d="M49.524,50.893a1.652,1.652,0,0,1-1.168-.481L.488,2.821A1.653,1.653,0,1,1,2.824.481l47.868,47.59a1.652,1.652,0,0,1-1.168,2.822" transform="translate(0 0.107)" fill="#8898aa"/>
      </g>
    </g>
    <path id="Fill_16" data-name="Fill 16" d="M10.288,18A10.285,10.285,0,0,1,0,7.716,10.152,10.152,0,0,1,2.994.487,1.665,1.665,0,0,1,5.339,2.85a6.911,6.911,0,0,0,.026,9.776,6.94,6.94,0,0,0,9.8.026,1.658,1.658,0,0,1,2.352,0,1.676,1.676,0,0,1,0,2.361A10.188,10.188,0,0,1,10.288,18" transform="translate(20 55.5)" fill="#8898aa"/>
    <g id="Group_20" data-name="Group 20" transform="translate(68 0.5)">
      <path id="Clip_19-2" data-name="Clip 19" d="M0,0H13.148V12.678H0Z" transform="translate(0.654 0.001)" fill="none"/>
      <g id="Group_20-2" data-name="Group 20" clip-path="url(#clip-path-2)">
        <path id="Fill_18" data-name="Fill 18" d="M1.68,12.678A1.7,1.7,0,0,1,.49,12.2a1.587,1.587,0,0,1,0-2.3L10.282.474a1.723,1.723,0,0,1,2.378,0,1.585,1.585,0,0,1-.007,2.3L2.866,12.2a1.705,1.705,0,0,1-1.186.474" transform="translate(0.654 0.001)" fill="#8898aa"/>
      </g>
    </g>
  </g>
</svg>
