<svg xmlns="http://www.w3.org/2000/svg" xmlns:xlink="http://www.w3.org/1999/xlink" width="83" height="77.443" viewBox="0 0 83 77.443">
  <defs>
    <clipPath id="clip-path">
      <path id="Clip_14" data-name="Clip 14" d="M0,0H43.1V30.931H0Z" transform="translate(0.895 0.854)" fill="none"/>
    </clipPath>
    <clipPath id="clip-path-2">
      <path id="Clip_17" data-name="Clip 17" d="M0,0H43.106V30.93H0Z" transform="translate(0 0.855)" fill="none"/>
    </clipPath>
    <clipPath id="clip-path-3">
      <path id="Clip_20" data-name="Clip 20" d="M0,0H23.16V13.835H0Z" transform="translate(0.892 0.557)" fill="none"/>
    </clipPath>
    <clipPath id="clip-path-4">
      <path id="Clip_25" data-name="Clip 25" d="M0,0H15.143V17.249H0Z" transform="translate(0.857 0.188)" fill="none"/>
    </clipPath>
  </defs>
  <g id="Group_29" data-name="Group 29" transform="translate(0 -0.557)">
    <path id="Fill_1" data-name="Fill 1" d="M1.676,49a1.682,1.682,0,0,1-.814-.209A1.663,1.663,0,0,1,0,47.338V19.292a1.656,1.656,0,0,1,.793-1.41L29.439.25a1.685,1.685,0,0,1,2.308.537,1.653,1.653,0,0,1-.541,2.289L3.352,20.216V44.351L28.647,28.785V19.292a1.676,1.676,0,0,1,3.352,0V29.709a1.66,1.66,0,0,1-.793,1.413L2.56,48.751A1.687,1.687,0,0,1,1.676,49" transform="translate(40 28)" fill="#8898aa"/>
    <path id="Fill_3" data-name="Fill 3" d="M30.323,31a1.673,1.673,0,0,1-.884-.253L.793,12.884A1.687,1.687,0,0,1,0,11.452V1.684a1.677,1.677,0,1,1,3.355,0v8.832L31.209,27.887A1.685,1.685,0,0,1,30.323,31" transform="translate(11 47)" fill="#8898aa"/>
    <path id="Fill_5" data-name="Fill 5" d="M30.323,21a1.687,1.687,0,0,1-.884-.25L.791,3.082A1.659,1.659,0,0,1,.253.788,1.679,1.679,0,0,1,2.561.253L31.209,17.919A1.665,1.665,0,0,1,30.323,21" transform="translate(11 28)" fill="#8898aa"/>
    <path id="Fill_7" data-name="Fill 7" d="M1.5,31A1.575,1.575,0,0,1,0,29.357V1.64A1.574,1.574,0,0,1,1.5,0,1.574,1.574,0,0,1,3,1.64V29.357A1.575,1.575,0,0,1,1.5,31" transform="translate(40 46)" fill="#8898aa"/>
    <path id="Fill_9" data-name="Fill 9" d="M1.69,7A1.716,1.716,0,0,1,.246,6.234,1.548,1.548,0,0,1,.812,4.04L7.436.231a1.747,1.747,0,0,1,2.32.536,1.551,1.551,0,0,1-.567,2.194L2.565,6.767A1.757,1.757,0,0,1,1.69,7" transform="translate(11 24)" fill="#8898aa"/>
    <path id="Fill_11" data-name="Fill 11" d="M44.334,21a1.632,1.632,0,0,1-.863-.247L15.888,3.681,2.528,11.949A1.645,1.645,0,0,1,.243,11.38,1.714,1.714,0,0,1,.8,9.051L15.023.247a1.636,1.636,0,0,1,1.729,0L45.2,17.856a1.714,1.714,0,0,1,.559,2.33A1.662,1.662,0,0,1,44.334,21" transform="translate(26 11)" fill="#8898aa"/>
    <g id="Group_15" data-name="Group 15" transform="translate(39 28)">
      <path id="Clip_14-2" data-name="Clip 14" d="M0,0H43.1V30.931H0Z" transform="translate(0.895 0.854)" fill="none"/>
      <g id="Group_15-2" data-name="Group 15" clip-path="url(#clip-path)">
        <path id="Fill_13" data-name="Fill 13" d="M13.111,30.931a1.663,1.663,0,0,1-1.1-.417L.556,20.388a1.643,1.643,0,0,1-.137-2.329,1.662,1.662,0,0,1,2.34-.139l10.53,9.311L38.683,11.544,28.892,2.886a1.654,1.654,0,1,1,2.2-2.468L42.549,10.547a1.643,1.643,0,0,1-.227,2.635l-28.336,17.5a1.655,1.655,0,0,1-.874.247" transform="translate(0.895 0.854)" fill="#8898aa"/>
      </g>
    </g>
    <g id="Group_18" data-name="Group 18" transform="translate(0 28)">
      <path id="Clip_17-2" data-name="Clip 17" d="M0,0H43.106V30.93H0Z" transform="translate(0 0.855)" fill="none"/>
      <g id="Group_18-2" data-name="Group 18" clip-path="url(#clip-path-2)">
        <path id="Fill_16" data-name="Fill 16" d="M30,30.93a1.655,1.655,0,0,1-.874-.248L.785,13.181a1.643,1.643,0,0,1-.227-2.635L12.012.417a1.654,1.654,0,1,1,2.2,2.468L4.423,11.543,29.817,27.23l10.53-9.311a1.662,1.662,0,0,1,2.34.139,1.643,1.643,0,0,1-.137,2.329L31.1,30.513a1.663,1.663,0,0,1-1.1.417" transform="translate(-0.001 0.855)" fill="#8898aa"/>
      </g>
    </g>
    <g id="Group_21" data-name="Group 21" transform="translate(39)">
      <path id="Clip_20-2" data-name="Clip 20" d="M0,0H23.16V13.835H0Z" transform="translate(0.892 0.557)" fill="none"/>
      <g id="Group_21-2" data-name="Group 21" clip-path="url(#clip-path-3)">
        <path id="Fill_19" data-name="Fill 19" d="M1.655,13.836a1.633,1.633,0,0,1-1.239-.571,1.734,1.734,0,0,1,.139-2.4L11.986.43A1.613,1.613,0,0,1,13.958.258l8.422,5.37a1.725,1.725,0,0,1,.532,2.339,1.629,1.629,0,0,1-2.279.549l-7.372-4.7L2.752,13.406a1.614,1.614,0,0,1-1.1.43" transform="translate(0.892 0.556)" fill="#8898aa"/>
      </g>
    </g>
    <path id="Fill_22" data-name="Fill 22" d="M1.507,3a1.443,1.443,0,0,1-1.06-.438A1.52,1.52,0,0,1,0,1.489,1.485,1.485,0,0,1,.448.431a1.5,1.5,0,0,1,2.1,0A1.485,1.485,0,0,1,3,1.489a1.52,1.52,0,0,1-.448,1.073A1.434,1.434,0,0,1,1.507,3" transform="translate(66 9)" fill="#8898aa"/>
    <g id="Group_26" data-name="Group 26" transform="translate(67 14)">
      <path id="Clip_25-2" data-name="Clip 25" d="M0,0H15.143V17.249H0Z" transform="translate(0.857 0.188)" fill="none"/>
      <g id="Group_26-2" data-name="Group 26" clip-path="url(#clip-path-4)">
        <path id="Fill_24" data-name="Fill 24" d="M1.7,17.249a1.715,1.715,0,0,1-1.273-.558,1.638,1.638,0,0,1,.143-2.347l10.04-8.726L6.421,3.075A1.64,1.64,0,0,1,5.873.788,1.72,1.72,0,0,1,8.214.251l6.127,3.717a1.665,1.665,0,0,1,.8,1.271,1.634,1.634,0,0,1-.566,1.385L2.827,16.828a1.706,1.706,0,0,1-1.127.42" transform="translate(0.857 0.188)" fill="#8898aa"/>
      </g>
    </g>
    <path id="Fill_27" data-name="Fill 27" d="M13.079,31a1.634,1.634,0,0,1-1.1-.418L.554,20.43a1.655,1.655,0,0,1,.227-2.641L29.048.248a1.654,1.654,0,0,1,1.97.17L42.444,10.57a1.653,1.653,0,1,1-2.195,2.471l-10.5-9.332L4.41,19.431l9.767,8.68A1.654,1.654,0,0,1,13.079,31" transform="translate(0 1)" fill="#8898aa"/>
  </g>
</svg>
