<svg id="Group_24" data-name="Group 24" xmlns="http://www.w3.org/2000/svg" xmlns:xlink="http://www.w3.org/1999/xlink" width="91" height="52" viewBox="0 0 91 52">
  <defs>
    <clipPath id="clip-path">
      <path id="Clip_4" data-name="Clip 4" d="M0,0H77.566V37.954H0Z" transform="translate(0 0.046)" fill="none"/>
    </clipPath>
    <clipPath id="clip-path-2">
      <path id="Clip_7" data-name="Clip 7" d="M0,0H38.249V3.36H0Z" transform="translate(0.276 0.64)" fill="none"/>
    </clipPath>
    <clipPath id="clip-path-3">
      <path id="Clip_10" data-name="Clip 10" d="M0,0H4.372V3.447H0Z" transform="translate(0.21 0.553)" fill="none"/>
    </clipPath>
  </defs>
  <path id="Fill_1" data-name="Fill 1" d="M1.491,3A1.431,1.431,0,0,1,.447,2.561a1.5,1.5,0,0,1,0-2.135,1.514,1.514,0,0,1,2.105,0A1.507,1.507,0,0,1,3,1.5a1.525,1.525,0,0,1-.447,1.06A1.449,1.449,0,0,1,1.491,3" transform="translate(31 48)" fill="#8898aa"/>
  <g id="Group_5" data-name="Group 5" transform="translate(0 14)">
    <path id="Clip_4-2" data-name="Clip 4" d="M0,0H77.566V37.954H0Z" transform="translate(0 0.046)" fill="none"/>
    <g id="Group_5-2" data-name="Group 5" clip-path="url(#clip-path)">
      <path id="Fill_3" data-name="Fill 3" d="M75.746,37.954a1.817,1.817,0,0,1-1.82-1.814V3.625H3.64v30.7H23.507a1.814,1.814,0,1,1,0,3.627H1.82A1.817,1.817,0,0,1,0,36.141V1.811A1.817,1.817,0,0,1,1.82,0H75.746a1.815,1.815,0,0,1,1.82,1.811v34.33a1.816,1.816,0,0,1-1.82,1.814" transform="translate(0 0.046)" fill="#8898aa"/>
    </g>
  </g>
  <g id="Group_8" data-name="Group 8" transform="translate(38 48)">
    <path id="Clip_7-2" data-name="Clip 7" d="M0,0H38.249V3.36H0Z" transform="translate(0.276 0.64)" fill="none"/>
    <g id="Group_8-2" data-name="Group 8" clip-path="url(#clip-path-2)">
      <path id="Fill_6" data-name="Fill 6" d="M36.429,3.36H1.817A1.752,1.752,0,0,1,0,1.68,1.754,1.754,0,0,1,1.817,0H36.429a1.754,1.754,0,0,1,1.82,1.68,1.753,1.753,0,0,1-1.82,1.68" transform="translate(0.276 0.64)" fill="#8898aa"/>
    </g>
  </g>
  <g id="Group_11" data-name="Group 11" transform="translate(73 48)">
    <path id="Clip_10-2" data-name="Clip 10" d="M0,0H4.372V3.447H0Z" transform="translate(0.21 0.553)" fill="none"/>
    <g id="Group_11-2" data-name="Group 11" clip-path="url(#clip-path-3)">
      <path id="Fill_9" data-name="Fill 9" d="M2.622,3.447H1.75A1.715,1.715,0,0,1,0,1.767,1.716,1.716,0,0,1,1.75.087,2.645,2.645,0,0,0,2.118.049L2.432.01a1.8,1.8,0,0,1,1.36.422,1.641,1.641,0,0,1,.58,1.248,1.788,1.788,0,0,1-1.75,1.766" transform="translate(0.21 0.553)" fill="#8898aa"/>
    </g>
  </g>
  <path id="Fill_12" data-name="Fill 12" d="M21.221,3H1.782A1.659,1.659,0,0,1,0,1.5,1.66,1.66,0,0,1,1.782,0H21.221A1.658,1.658,0,0,1,23,1.5,1.656,1.656,0,0,1,21.221,3" transform="translate(37 25)" fill="#8898aa"/>
  <path id="Fill_14" data-name="Fill 14" d="M24.195,3H1.8A1.672,1.672,0,0,1,0,1.5,1.672,1.672,0,0,1,1.8,0H24.195A1.674,1.674,0,0,1,26,1.5,1.674,1.674,0,0,1,24.195,3" transform="translate(41 37)" fill="#8898aa"/>
  <path id="Fill_16" data-name="Fill 16" d="M9.5,19A9.5,9.5,0,1,1,19,9.5,9.509,9.509,0,0,1,9.5,19Zm0-15.413A5.913,5.913,0,1,0,15.413,9.5,5.919,5.919,0,0,0,9.5,3.587Z" transform="translate(11 23)" fill="#8898aa"/>
  <path id="Fill_18" data-name="Fill 18" d="M75.193,38a1.81,1.81,0,0,1-1.807-1.816V3.629H3.613V15.31A1.807,1.807,0,1,1,0,15.31V1.816A1.81,1.81,0,0,1,1.807,0H75.193A1.81,1.81,0,0,1,77,1.816V36.184A1.81,1.81,0,0,1,75.193,38" transform="translate(14)" fill="#8898aa"/>
  <path id="Fill_20" data-name="Fill 20" d="M13.19,3H1.813A1.679,1.679,0,0,1,0,1.5,1.68,1.68,0,0,1,1.813,0H13.19A1.677,1.677,0,0,1,15,1.5,1.676,1.676,0,0,1,13.19,3" transform="translate(75 35)" fill="#8898aa"/>
  <path id="Fill_22" data-name="Fill 22" d="M2.4,3H1.6A1.536,1.536,0,0,1,0,1.537,1.537,1.537,0,0,1,1.6.073,2.914,2.914,0,0,0,1.933.042l.3-.036a1.709,1.709,0,0,1,1.237.37A1.4,1.4,0,0,1,4,1.463,1.6,1.6,0,0,1,2.4,3" transform="translate(87 35)" fill="#8898aa"/>
</svg>
