<svg xmlns="http://www.w3.org/2000/svg" xmlns:xlink="http://www.w3.org/1999/xlink" width="169.494" height="34.136" viewBox="0 0 169.494 34.136">
  <defs>
    <clipPath id="clip-path">
      <path id="Clip_20" data-name="Clip 20" d="M0,0H12.9V12.755H0Z" transform="translate(0.445 0.16)" fill="none"/>
    </clipPath>
    <clipPath id="clip-path-2">
      <path id="Clip_23" data-name="Clip 23" d="M0,0H28.389V34.136H0Z" transform="translate(0.711 0.103)" fill="none"/>
    </clipPath>
  </defs>
  <g id="Group_25" data-name="Group 25" transform="translate(0 -0.761)">
    <path id="Fill_1" data-name="Fill 1" d="M19.574,1.106a1.006,1.006,0,0,0-.342-.822A1.3,1.3,0,0,0,18.375,0a1.812,1.812,0,0,0-1.1.369,1.723,1.723,0,0,0-.685,1.09l-1.6,7.376a1.173,1.173,0,0,1-.434.707,1.2,1.2,0,0,1-.775.292A.794.794,0,0,1,13.2,9.6a.78.78,0,0,1-.241-.576,1.072,1.072,0,0,1,.016-.185l1.072-4.917a4.437,4.437,0,0,0,.078-.815A3,3,0,0,0,13.228.884,3.141,3.141,0,0,0,10.921,0,4.723,4.723,0,0,0,7.884,1.16,4.815,4.815,0,0,0,6.12,3.918L5.048,8.835a1.173,1.173,0,0,1-.435.707,1.2,1.2,0,0,1-.777.292A.8.8,0,0,1,3.254,9.6a.785.785,0,0,1-.24-.578c0-.061,0-.122,0-.184l1.6-7.376A1.516,1.516,0,0,0,4.66,1.1,1.007,1.007,0,0,0,4.318.284,1.292,1.292,0,0,0,3.464,0a1.811,1.811,0,0,0-1.1.369A1.732,1.732,0,0,0,1.677,1.46L.093,8.835A3.44,3.44,0,0,0,0,9.619a3.016,3.016,0,0,0,.908,2.235,3.125,3.125,0,0,0,2.293.9,4.744,4.744,0,0,0,3.055-1.145A4.788,4.788,0,0,0,8,8.837L9.076,3.919a1.209,1.209,0,0,1,.449-.692,1.187,1.187,0,0,1,.76-.308.811.811,0,0,1,.6.223.754.754,0,0,1,.225.56,1.266,1.266,0,0,1-.019.215L10.015,8.834a4.379,4.379,0,0,0-.073.784,3.016,3.016,0,0,0,.908,2.235,3.12,3.12,0,0,0,2.292.9,4.736,4.736,0,0,0,3.052-1.145,4.785,4.785,0,0,0,1.748-2.774l1.6-7.375a2.133,2.133,0,0,0,.032-.354" transform="translate(0 11.47)"/>
    <path id="Fill_3" data-name="Fill 3" d="M6.916,3.442H5.155a1.179,1.179,0,0,0-.919.393,1.266,1.266,0,0,0-.353.866q0,.785.838.785H6.482A3.268,3.268,0,0,0,8.6,4.679,3.378,3.378,0,0,0,9.819,2.743a2.571,2.571,0,0,0,.065-.57A2.086,2.086,0,0,0,9.254.619,2.217,2.217,0,0,0,7.634,0H4.154A3.306,3.306,0,0,0,2.028.812,3.37,3.37,0,0,0,.794,2.743L.054,6.185A2.874,2.874,0,0,0,0,6.734,2.122,2.122,0,0,0,.631,8.3a2.183,2.183,0,0,0,1.609.629H7.46a1.2,1.2,0,0,0,.935-.409,1.235,1.235,0,0,0,.337-.849q0-.785-.837-.785H2.675a.538.538,0,0,1-.4-.167.554.554,0,0,1-.164-.4.671.671,0,0,1,.013-.129l.739-3.442a.841.841,0,0,1,.321-.484.853.853,0,0,1,.538-.215H7.2a.552.552,0,0,1,.407.156.53.53,0,0,1,.158.393.819.819,0,0,1-.262.587.806.806,0,0,1-.587.263" transform="translate(18.855 15.227)"/>
    <path id="Fill_5" data-name="Fill 5" d="M9.853,3.872a2.068,2.068,0,0,0-.62-1.549,2.244,2.244,0,0,0-1.632-.6H5.862a1.178,1.178,0,0,0-.919.393,1.269,1.269,0,0,0-.354.866q0,.785.838.785h1.74q.576,0,.576.527a.667.667,0,0,1-.023.173L7.35,6.185a.88.88,0,0,1-.315.495.838.838,0,0,1-.544.2H2.309l1.26-5.863A1.087,1.087,0,0,0,3.6.775.7.7,0,0,0,3.355.2a.927.927,0,0,0-.6-.2,1.249,1.249,0,0,0-.762.258,1.256,1.256,0,0,0-.489.764L.022,7.906A.877.877,0,0,0,0,8.1a.8.8,0,0,0,.24.592.817.817,0,0,0,.6.237H6.057a3.329,3.329,0,0,0,2.132-.8A3.339,3.339,0,0,0,9.418,6.185l.37-1.721a2.768,2.768,0,0,0,.065-.592" transform="translate(28.206 15.227)"/>
    <path id="Fill_7" data-name="Fill 7" d="M12.6,1.106a1,1,0,0,0-.35-.822A1.324,1.324,0,0,0,11.386,0,1.785,1.785,0,0,0,10.3.369a1.791,1.791,0,0,0-.7,1.09L8.014,8.835a1.2,1.2,0,0,1-.458.692,1.218,1.218,0,0,1-.768.307H1.817A1.685,1.685,0,0,0,.5,10.4,1.816,1.816,0,0,0,0,11.632q0,1.122,1.2,1.122H6.168A4.722,4.722,0,0,0,9.2,11.594a4.816,4.816,0,0,0,1.763-2.759L12.552,1.46a1.463,1.463,0,0,0,.047-.354" transform="translate(37.687 11.47)"/>
    <path id="Fill_9" data-name="Fill 9" d="M13.391,0H5.934A4.724,4.724,0,0,0,2.9,1.16,4.818,4.818,0,0,0,1.133,3.918L.077,8.835A4.13,4.13,0,0,0,0,9.62a3.029,3.029,0,0,0,.9,2.235,3.116,3.116,0,0,0,2.3.9h7.456a1.721,1.721,0,0,0,1.336-.584,1.77,1.77,0,0,0,.482-1.214q0-1.121-1.2-1.122H3.822A.774.774,0,0,1,3.246,9.6a.79.79,0,0,1-.232-.575.941.941,0,0,1,.018-.185L4.088,3.918a1.2,1.2,0,0,1,.458-.691,1.219,1.219,0,0,1,.768-.308H12.77a1.72,1.72,0,0,0,1.335-.584,1.769,1.769,0,0,0,.482-1.214Q14.587,0,13.391,0" transform="translate(49.51 11.47)"/>
    <path id="Fill_11" data-name="Fill 11" d="M6.788,0H1.818A1.685,1.685,0,0,0,.505.561,1.81,1.81,0,0,0,0,1.8Q0,2.92,1.2,2.919H6.167A1.722,1.722,0,0,0,7.5,2.335a1.771,1.771,0,0,0,.482-1.214Q7.985,0,6.788,0" transform="translate(55.055 16.388)"/>
    <path id="Fill_13" data-name="Fill 13" d="M11.76,0H1.818A1.766,1.766,0,0,0,.544.53,1.693,1.693,0,0,0,0,1.783,1.147,1.147,0,0,0,.3,2.6a1.17,1.17,0,0,0,.894.322h3.5l-1.8,8.375a1.42,1.42,0,0,0-.047.353.987.987,0,0,0,.374.829,1.245,1.245,0,0,0,.838.278,1.844,1.844,0,0,0,1.112-.384A1.772,1.772,0,0,0,5.844,11.3l1.8-8.376h3.494a1.719,1.719,0,0,0,1.335-.584,1.769,1.769,0,0,0,.482-1.214Q12.956,0,11.76,0" transform="translate(64.966 11.47)"/>
    <path id="Fill_15" data-name="Fill 15" d="M3.962,12.755a3.831,3.831,0,0,1-2.789-1.16A3.744,3.744,0,0,1,0,8.837V3.919A3.744,3.744,0,0,1,1.173,1.16,3.831,3.831,0,0,1,3.962,0h7.457a1.393,1.393,0,0,1,1.1.461,1.407,1.407,0,0,1,.372,1,1.408,1.408,0,0,1-.372,1,1.393,1.393,0,0,1-1.1.461H3.962a.967.967,0,0,0-.7.307.948.948,0,0,0-.311.692V8.837a.948.948,0,0,0,.311.691.968.968,0,0,0,.7.308h7.457a1.391,1.391,0,0,1,1.1.461,1.46,1.46,0,0,1-1.1,2.458Z" transform="translate(123.956 11.47)"/>
    <path id="Fill_17" data-name="Fill 17" d="M14.9,11.3V3.919a.964.964,0,0,0-.3-.692.959.959,0,0,0-.706-.307.985.985,0,0,0-.706.291.942.942,0,0,0-.3.708V8.837a3.752,3.752,0,0,1-1.172,2.758,3.814,3.814,0,0,1-2.775,1.16,3.837,3.837,0,0,1-2.8-1.145A3.757,3.757,0,0,1,4.972,8.837V3.919a.955.955,0,0,0-.312-.692.984.984,0,0,0-1.413-.015.957.957,0,0,0-.3.708V11.3a1.347,1.347,0,0,1-.443,1.076,1.528,1.528,0,0,1-1.033.384,1.523,1.523,0,0,1-1.042-.384A1.359,1.359,0,0,1,0,11.3V3.919A3.757,3.757,0,0,1,1.158,1.145,3.84,3.84,0,0,1,3.962,0,3.839,3.839,0,0,1,6.743,1.16,3.737,3.737,0,0,1,7.924,3.919V8.837a.957.957,0,0,0,.295.706.98.98,0,0,0,.715.293.945.945,0,0,0,.692-.308.962.962,0,0,0,.3-.691V3.919a3.744,3.744,0,0,1,1.165-2.774,3.96,3.96,0,0,1,5.586.015,3.752,3.752,0,0,1,1.172,2.759V11.3a1.36,1.36,0,0,1-.435,1.076,1.519,1.519,0,0,1-1.04.384,1.48,1.48,0,0,1-1.011-.369A1.363,1.363,0,0,1,14.9,11.3" transform="translate(137.799 11.47)"/>
    <g id="Group_21" data-name="Group 21" transform="translate(156.154 11.31)">
      <path id="Clip_20-2" data-name="Clip 20" d="M0,0H12.9V12.755H0Z" transform="translate(0.445 0.16)" fill="none"/>
      <g id="Group_21-2" data-name="Group 21" clip-path="url(#clip-path)">
        <path id="Fill_19" data-name="Fill 19" d="M8.933,12.755H1.476a1.392,1.392,0,0,1-1.1-.461,1.525,1.525,0,0,1,0-2,1.39,1.39,0,0,1,1.1-.461H8.933a.979.979,0,0,0,.715-.293.952.952,0,0,0,.3-.706.971.971,0,0,0-.28-.723.993.993,0,0,0-.73-.276H3.962a3.828,3.828,0,0,1-2.788-1.16A3.747,3.747,0,0,1,0,3.919,3.747,3.747,0,0,1,1.173,1.16,3.828,3.828,0,0,1,3.962,0h7.458a1.392,1.392,0,0,1,1.1.461,1.407,1.407,0,0,1,.373,1,1.409,1.409,0,0,1-.373,1,1.392,1.392,0,0,1-1.1.461H3.962a.968.968,0,0,0-.7.307.924.924,0,0,0,0,1.383.968.968,0,0,0,.7.307H8.933a3.844,3.844,0,0,1,2.812,1.137A3.761,3.761,0,0,1,12.9,8.837a3.76,3.76,0,0,1-1.158,2.773,3.841,3.841,0,0,1-2.8,1.145" transform="translate(0.445 0.16)"/>
      </g>
    </g>
    <g id="Group_24" data-name="Group 24" transform="translate(85.385 0.658)">
      <path id="Clip_23-2" data-name="Clip 23" d="M0,0H28.389V34.136H0Z" transform="translate(0.711 0.103)" fill="none"/>
      <g id="Group_24-2" data-name="Group 24" clip-path="url(#clip-path-2)">
        <path id="Fill_22" data-name="Fill 22" d="M15.285,34.136a4.794,4.794,0,0,1-2.373-.626L.193,26.244A.382.382,0,0,1,0,25.915V8.892a.381.381,0,0,1,.193-.33L15.092.05a.392.392,0,0,1,.385,0l11.63,6.644a2.524,2.524,0,0,1,0,4.395l-3.6,2.058,3.6,2.058a2.524,2.524,0,0,1,0,4.395l-3.6,2.058,3.6,2.058a2.524,2.524,0,0,1,0,4.395l-9.449,5.4A4.794,4.794,0,0,1,15.285,34.136ZM7.835,22.1h0L1.154,25.915,13.3,32.85a4.023,4.023,0,0,0,3.976,0l9.449-5.4a1.767,1.767,0,0,0,0-3.077L22.736,22.1,17.658,25a4.809,4.809,0,0,1-4.747,0L7.835,22.1ZM.77,18.062v7.192l6.3-3.6Zm14.515-.22h0L8.6,21.659l4.693,2.68a4.029,4.029,0,0,0,3.976,0l4.694-2.68-6.682-3.816Zm7.451-4.256h0l-5.078,2.9a4.738,4.738,0,0,1-1.989.6v.095l7.067,4.036,3.986-2.279a1.766,1.766,0,0,0,0-3.076l-3.986-2.278Zm-14.9,0h0L1.154,17.4l6.681,3.816L14.9,17.184v-.095a4.732,4.732,0,0,1-1.989-.6l-5.077-2.9ZM.77,9.551v7.191l6.3-3.595Zm14.9,0v6.778a3.962,3.962,0,0,0,1.6-.5l4.694-2.68Zm-.769,0h0l-6.3,3.6,4.693,2.68a3.92,3.92,0,0,0,1.6.5l0-6.775Zm.769-8.511V8.672l7.067,4.036,3.986-2.278a1.766,1.766,0,0,0,0-3.076Zm-.769,0h0L10.627,3.48,1.154,8.892l6.681,3.816L14.9,8.672V1.039Z" transform="translate(0.711 0.103)"/>
      </g>
    </g>
  </g>
</svg>
