<?xml version="1.0" encoding="utf-8"?>
<!-- Generator: Adobe Illustrator 15.0.2, SVG Export Plug-In . SVG Version: 6.00 Build 0)  -->
<!DOCTYPE svg PUBLIC "-//W3C//DTD SVG 1.1//EN" "http://www.w3.org/Graphics/SVG/1.1/DTD/svg11.dtd">
<svg version="1.1" id="Group_1_1_" xmlns="http://www.w3.org/2000/svg" xmlns:xlink="http://www.w3.org/1999/xlink" x="0px" y="0px"
	 width="359.694px" height="118.701px" viewBox="0 0 359.694 118.701" enable-background="new 0 0 359.694 118.701"
	 xml:space="preserve">
<g id="Shape_1" opacity="0.5098">
	<g>
		<path fill-rule="evenodd" clip-rule="evenodd" fill="#BFBFBF" d="M346.731,0h-333.8C5.79,0,0,9.183,0,20.51v98.191h359.662V20.51 C359.662,9.183,353.872,0,346.731,0z"/>
	</g>
</g>
<g id="watermark">
	<g>
		<path fill="#FFFFFF" d="M95.233,38.599L84.305,79.281h-3.833l-9.763-36.384l-9.996,36.384h-3.791L46.079,38.599h3.939l8.81,35.24
			l9.466-35.24h4.702l9.424,35.028l9.106-35.028H95.233z"/>
		<path fill="#FFFFFF" d="M122.499,79.281h-3.039l-3.706-9.072h-13.283l-3.573,9.072h-2.92l11.578-28.479h2.816L122.499,79.281z
			 M114.834,67.97l-5.9-14.335l-5.633,14.335H114.834z"/>
		<path fill="#FFFFFF" d="M143.519,53.294h-8.731v25.987h-2.728V53.294h-8.702v-2.491h20.161V53.294z"/>
		<path fill="#FFFFFF" d="M166.752,79.281h-18.798V50.803h18.205v2.402h-15.492v10.229h14.335v2.343h-14.335v11.147h16.085V79.281z"
			/>
		<path fill="#FFFFFF" d="M194.87,79.281h-3.439l-3.84-6.019c-1.591-2.491-2.728-4.097-3.41-4.818
			c-0.682-0.721-1.485-1.277-2.409-1.668c-0.924-0.39-1.945-0.585-3.062-0.585h-4.106v13.09h-2.713V50.803h11.979
			c1.818,0,3.367,0.305,4.647,0.912c1.28,0.607,2.261,1.473,2.942,2.595c0.682,1.121,1.023,2.482,1.023,4.084
			c0,4.536-2.752,7.071-8.257,7.604c2.026,1.038,3.766,2.674,5.218,4.907L194.87,79.281z M174.604,53.19v10.673h7.501
			c5.03,0,7.545-1.813,7.545-5.44c0-0.78-0.131-1.487-0.393-2.12c-0.262-0.632-0.687-1.205-1.275-1.72
			c-0.588-0.514-1.349-0.874-2.283-1.082c-0.934-0.207-2.088-0.311-3.461-0.311H174.604z"/>
		<path fill="#FFFFFF" d="M224.354,79.281h-2.698l0.445-25.558l-9.74,25.558h-2.253l-9.592-25.558l0.43,25.558h-2.668V50.803h3.78
			l9.176,24.653l9.28-24.653h3.839V79.281z"/>
		<path fill="#FFFFFF" d="M254.226,79.281h-3.039l-3.706-9.072h-13.283l-3.573,9.072h-2.92l11.578-28.479h2.816L254.226,79.281z
			 M246.562,67.97l-5.9-14.335l-5.633,14.335H246.562z"/>
		<path fill="#FFFFFF" d="M280.541,79.281h-3.439l-3.84-6.019c-1.591-2.491-2.728-4.097-3.41-4.818
			c-0.682-0.721-1.485-1.277-2.409-1.668c-0.924-0.39-1.945-0.585-3.062-0.585h-4.106v13.09h-2.713V50.803h11.979
			c1.818,0,3.367,0.305,4.647,0.912c1.28,0.607,2.261,1.473,2.942,2.595c0.682,1.121,1.023,2.482,1.023,4.084
			c0,4.536-2.752,7.071-8.257,7.604c2.026,1.038,3.766,2.674,5.218,4.907L280.541,79.281z M260.275,53.19v10.673h7.501
			c5.03,0,7.545-1.813,7.545-5.44c0-0.78-0.131-1.487-0.393-2.12c-0.262-0.632-0.687-1.205-1.275-1.72
			c-0.588-0.514-1.349-0.874-2.283-1.082c-0.934-0.207-2.088-0.311-3.461-0.311H260.275z"/>
		<path fill="#FFFFFF" d="M306.883,79.281h-3.573l-11.548-15.21l-5.144,4.655v10.555h-2.698V50.803h2.698v14.885l16.084-14.885
			h3.647l-12.823,11.652L306.883,79.281z"/>
	</g>
</g>
</svg>